<svg xmlns="http://www.w3.org/2000/svg" width="398.529" height="303.471" viewBox="0 0 398.529 303.471">
  <g id="undraw_people_re_8spw" transform="translate(0.009 0.123)">
    <path id="Path_375" data-name="Path 375" d="M687.3,225.12a2.421,2.421,0,0,0,1.754-4.2l-.166-.659.066-.158a6.5,6.5,0,0,1,11.991.045c1.961,4.724,4.458,9.455,5.073,14.45a19.231,19.231,0,0,1-.338,6.614,77.1,77.1,0,0,0,7.014-32.024,74.421,74.421,0,0,0-.462-8.3q-.382-3.39-1.061-6.731A78,78,0,0,0,695.7,161.1a20.757,20.757,0,0,1-8.633-8.957,15.832,15.832,0,0,1-1.44-4.327c.42.055,1.585-6.346,1.268-6.738.586-.889,1.634-1.331,2.274-2.2,3.181-4.313,7.564-3.56,9.853,2.3,4.888,2.467,4.935,6.558,1.936,10.493-1.908,2.5-2.17,5.891-3.845,8.571.172.221.351.434.524.655a78.5,78.5,0,0,1,8.194,12.981,32.634,32.634,0,0,1,1.948-15.158c1.865-4.5,5.36-8.288,8.438-12.177a6.7,6.7,0,0,1,11.93,3.289q.009.086.018.172-.686.387-1.343.821a3.284,3.284,0,0,0,1.324,5.976l.067.01a32.682,32.682,0,0,1-.861,4.885c3.949,15.271-4.576,20.833-16.749,21.083-.269.138-.531.276-.8.407a80.125,80.125,0,0,1,4.313,20.3,75.978,75.978,0,0,1-.055,12.271l.021-.145a20.082,20.082,0,0,1,6.855-11.6c5.276-4.334,12.729-5.93,18.42-9.413a3.769,3.769,0,0,1,5.772,3.666l-.023.152a22.063,22.063,0,0,0-2.473,1.192q-.686.387-1.343.821a3.284,3.284,0,0,0,1.324,5.976l.067.01.138.021a32.7,32.7,0,0,1-6.015,9.418c-2.469,13.331-13.074,14.6-24.418,10.714h-.007A80.1,80.1,0,0,1,707,242.283H687.777c-.069-.214-.131-.434-.193-.648a21.84,21.84,0,0,0,5.319-.317c-1.426-1.75-2.852-3.514-4.279-5.264a1.192,1.192,0,0,1-.09-.1c-.723-.9-1.454-1.784-2.177-2.68h0a32,32,0,0,1,.937-8.15Z" transform="translate(-445.648 -133.754)" fill="#f2f2f2"/>
    <path id="Path_376" data-name="Path 376" d="M806.4,200.109c-3.574-13.031,25.254-24.206,32.824-13.712,1.053-1.492,4.943-2.4,6.728-1.941a13.92,13.92,0,0,1,4.751,2.709c2.014,1.547,4.1,3.149,5.336,5.373s1.437,5.236-.238,7.158c-1.327,1.529-5.245,2.517-7.24,2.92-1.391.284-2.563.513-3.57.677a6.826,6.826,0,0,1-1.19-4.513,5.54,5.54,0,0,0-2.417,4.064c-.027.339,11.25,41.831,11.25,41.831a24.6,24.6,0,0,1-4.256,1.913,53.523,53.523,0,0,1-6.636-14.462,46.344,46.344,0,0,0,.128,10.3,56.685,56.685,0,0,0,.97,5.7c-13.4,2.892-33.556,1.941-42.325-10.362l0-.153a2.093,2.093,0,0,0-4.044-.73c-.213.543-.409,1.013-.583,1.386C793.33,229.134,796.634,218.562,806.4,200.109Z" transform="translate(-503.036 -157.937)" fill="#2f2e41"/>
    <path id="Path_377" data-name="Path 377" d="M770.949,679.207v.427a1.814,1.814,0,0,1,0-.427Z" transform="translate(-490.387 -418.562)" fill="#2f2e41"/>
    <path id="Path_378" data-name="Path 378" d="M798.558,523.911a7.285,7.285,0,0,1,1.038-.2Q798.993,523.807,798.558,523.911Z" transform="translate(-504.873 -337.014)" fill="#2f2e41"/>
    <path id="Path_379" data-name="Path 379" d="M797.919,524.21c.092-.026.195-.052.3-.077C798.121,524.159,798.023,524.178,797.919,524.21Z" transform="translate(-504.538 -337.236)" fill="#2f2e41"/>
    <path id="Path_380" data-name="Path 380" d="M879.4,637.007H830.283a3.906,3.906,0,0,1-1.052-4.81c1.342-3.078-1.288-5.89-1.288-5.89a8.354,8.354,0,0,1-1.683-7.7c1.3-4.545-3.8-17.375-3.8-17.375s-2.749,16.566-6.118,35.775H769.629a8.683,8.683,0,0,1,0-8.793c2.722-4.616,0-5.5,0-5.5s-2.722-5.165,0-8.916,0-19.065,0-19.065c.1.677.878-.554,2.072-3.135,1.818-3.927,4.6-10.989,7.4-19.188,2.007-5.852,4.03-12.29,5.72-18.585h0q.665-2.481,1.26-4.916c.776-3.184,1.44-6.278,1.945-9.184,1.1-6.258,1.457-11.634.616-15.13-.7-2.909-2.224-4.514-4.859-4.239,1.412-.234,3.48-.455,6.028-.665.46-.037.936-.074,1.428-.115,19.008-1.436,59.789-2.261,59.789-2.261l12.491,22.368,15.819,28.335S878.912,606.029,879.4,637.007Z" transform="translate(-489.067 -333.66)" fill="#2f2e41"/>
    <path id="Path_381" data-name="Path 381" d="M828.861,307.288l-28.778-6.1-5.714,11.5-19.242,11.141s12.4,50.715,12.333,57.848c-.18,18.109-29.155,58.7-7.269,55.581s26.332-16.2,33.358-14.136c6.337,1.865,14.074,10.164,19.254,4.229s7,.918,10.28,1.155c1.557.113.619-7.494,4.535.236s24.684-2.676,17.645-9.714c-11.723-11.723-14.105-98.138-14.105-98.138l-13.05-4.015Z" transform="translate(-490.954 -220.314)" fill="#e6e6e6"/>
    <path id="Path_382" data-name="Path 382" d="M764.463,656.608a6.908,6.908,0,0,0-.711-9.609,6.624,6.624,0,0,0-.887-.643l4.812-23.615-11.124-6.658-3.094,33.062a6.889,6.889,0,0,0,1.588,8.259,6.593,6.593,0,0,0,9.3-.659Q764.405,656.678,764.463,656.608Z" transform="translate(-480.835 -385.458)" fill="#a0616a"/>
    <path id="Path_383" data-name="Path 383" d="M798.49,385.629c-.07-.759-1.038-1.1-2.38-1.58a14.719,14.719,0,0,1-3.8-1.8c-2.971-2.146-1.8-4.391-.185-7.493.316-.6.644-1.231.952-1.884.915-1.933-.542-9.906-4.337-23.7-1.17-4.247-1.165-7.247-1.974-9.237s-2.417-2.971-6.812-3.176a20.093,20.093,0,0,0-14.465,5.142c-.107.094-.217.2-.324.3q-.3.283-.591.579a20.078,20.078,0,0,0-5.835,13.8l-.02.882-.907,42.152L755.26,436.6l-3.513,50.954,2.6.127,10.382.517,1.26.062,2.987-12.532,3.595-15.08,1.321-5.54,4.1-17.186,1.912-8.031,1.17-4.9.476-2,2.323-9.734c.053-.205,5.4-21.285,11.556-24.81C797.727,387.127,798.556,386.363,798.49,385.629Z" transform="translate(-480.324 -238.956)" fill="#e6e6e6"/>
    <path id="Path_384" data-name="Path 384" d="M987.822,655.4a6.908,6.908,0,0,1-.325-9.63,6.611,6.611,0,0,1,.813-.734l-7.32-22.962,10.344-7.814,6.627,32.539a6.889,6.889,0,0,1-.692,8.382,6.593,6.593,0,0,1-9.317.344Q987.886,655.464,987.822,655.4Z" transform="translate(-600.547 -384.503)" fill="#a0616a"/>
    <path id="Path_385" data-name="Path 385" d="M947.809,462.505s-8.07-28.386-5.609-31.459-4.806-3.673-1.675-9.4-1.191-6.68-1.191-6.68l-2.345-13.158-4.193-32.32-.127-.961-1.22-9.4a20.135,20.135,0,0,0-7.94-13.609c-.111-.085-.224-.166-.337-.248q-.774-.557-1.582-1.033a20.1,20.1,0,0,0-13.366-2.539c-8.7,1.354-5.99,4.6-7.4,13.285-2.292,14.126-2.887,22.207-1.769,24.033.376.615.772,1.2,1.149,1.768,1.942,2.915,3.345,5.017.62,7.475a14.861,14.861,0,0,1-3.588,2.2c-1.281.62-2.208,1.065-2.2,1.827.014.739.92,1.405,3.344,2.463,2.938,1.286,6.093,6.146,8.677,11.111a122.656,122.656,0,0,1,5.478,12.317l22.211,62.469,3.623,10.188,1.25-.2L949.885,489l2.574-.407Z" transform="translate(-555.472 -241.431)" fill="#e6e6e6"/>
    <circle id="Ellipse_61" data-name="Ellipse 61" cx="23.479" cy="23.479" r="23.479" transform="translate(302.287 33.481)" fill="#a0616a"/>
    <path id="Path_386" data-name="Path 386" d="M779.455,203.959c-3.574-13.031,25.254-24.206,32.824-13.712,1.053-1.492,4.943-2.4,6.728-1.941a13.919,13.919,0,0,1,4.751,2.709c2.014,1.547,4.1,3.149,5.336,5.373s1.437,5.236-.238,7.158c-1.327,1.529-5.245,2.517-7.24,2.92-1.391.284-2.563.513-3.57.677a6.825,6.825,0,0,1-1.19-4.513,5.54,5.54,0,0,0-2.416,4.064c-.028.339,11.25,41.831,11.25,41.831a24.6,24.6,0,0,1-4.256,1.913,53.521,53.521,0,0,1-6.636-14.462,46.336,46.336,0,0,0,.128,10.3,56.652,56.652,0,0,0,.97,5.7c-13.4,2.892-33.556,1.941-42.325-10.362q0-.076,0-.153a2.093,2.093,0,0,0-4.044-.73c-.213.543-.408,1.013-.583,1.386C766.384,232.984,769.688,222.411,779.455,203.959Z" transform="translate(-488.905 -159.956)" fill="#2f2e41"/>
    <path id="Path_387" data-name="Path 387" d="M810.435,197.849" transform="translate(-511.102 -166.122)" fill="#2f2e41"/>
    <path id="Path_388" data-name="Path 388" d="M483.294,296.12a2.421,2.421,0,0,1-1.754-4.2l.166-.659-.066-.158a6.5,6.5,0,0,0-11.991.045c-1.961,4.724-4.458,9.455-5.073,14.45a19.231,19.231,0,0,0,.338,6.614,77.1,77.1,0,0,1-7.014-32.024,74.408,74.408,0,0,1,.462-8.3q.382-3.39,1.061-6.731A78,78,0,0,1,474.889,232.1a20.757,20.757,0,0,0,8.633-8.957,15.835,15.835,0,0,0,1.44-4.327c-.42.055-1.585-6.346-1.268-6.738-.586-.889-1.634-1.331-2.274-2.2-3.181-4.313-7.564-3.56-9.853,2.3-4.888,2.467-4.935,6.558-1.936,10.493,1.908,2.5,2.17,5.891,3.845,8.571-.172.22-.351.434-.524.655a78.5,78.5,0,0,0-8.194,12.981,32.634,32.634,0,0,0-1.948-15.158c-1.865-4.5-5.36-8.288-8.438-12.177a6.7,6.7,0,0,0-11.93,3.289q-.009.086-.018.172.686.387,1.343.821a3.284,3.284,0,0,1-1.324,5.976l-.067.01a32.677,32.677,0,0,0,.861,4.885c-3.949,15.271,4.576,20.833,16.749,21.083.269.138.531.276.8.407a80.126,80.126,0,0,0-4.313,20.3,76,76,0,0,0,.055,12.271l-.021-.145a20.082,20.082,0,0,0-6.856-11.6c-5.276-4.334-12.729-5.93-18.42-9.413a3.769,3.769,0,0,0-5.772,3.666l.023.152a22.05,22.05,0,0,1,2.473,1.192q.686.387,1.343.821a3.284,3.284,0,0,1-1.324,5.976l-.067.01-.138.021a32.7,32.7,0,0,0,6.015,9.418c2.469,13.331,13.074,14.6,24.418,10.714h.007a80.1,80.1,0,0,0,5.381,15.709h19.223c.069-.214.131-.434.193-.648a21.839,21.839,0,0,1-5.319-.317c1.426-1.75,2.852-3.514,4.279-5.264a1.2,1.2,0,0,0,.09-.1c.723-.9,1.454-1.784,2.177-2.68h0a31.99,31.99,0,0,0-.937-8.15Z" transform="translate(-309.184 -170.989)" fill="#f2f2f2"/>
    <path id="Path_389" data-name="Path 389" d="M341.593,190.979c-.436,1.017-13.889.908-14.5,1.813-4.75,6.989,12.374,36.728,7.623,43.726l-.662.789A31.269,31.269,0,0,0,338.5,234.8c.127-2.865.254-5.738.39-8.6a23.644,23.644,0,0,1,3.409,5.992,38.807,38.807,0,0,1,6.754-5.068,29.729,29.729,0,0,1,6.57-5.408Z" transform="translate(-257.177 -162.519)" fill="#2f2e41"/>
    <path id="Path_390" data-name="Path 390" d="M275.185,309.438a11.141,11.141,0,0,0-16.879,6.59l-20.443,53.265-35.139-19.949a10.879,10.879,0,1,0-6.787,10.82c7.4,7.9,39.481,40.279,52.762,27.627,11.164-10.635,27.274-51.851,31.152-66.083A11.143,11.143,0,0,0,275.185,309.438Z" transform="translate(-181 -223.696)" fill="#ffb6b6"/>
    <path id="Path_391" data-name="Path 391" d="M117.341,349.883l6.451,29.158,47.172,4.267,4.335-25.389Z" transform="translate(-61.542 -183.555)" fill="#ffb6b6"/>
    <path id="Path_392" data-name="Path 392" d="M335.814,577.267c-.022.418-.047.832-.078,1.25-.452,6.042-.97,13.01-1.53,20.646-.883,12.118-1.87,25.916-2.866,40.352H232.4l19.189-57.678s7.748-4.266,3.8-11.432,3.817-1.456,3.889-11.69,7.027-21.122,7.027-21.122l1.142-15.5.651.013,51.491.857.939.017,1.581,13.3A58.812,58.812,0,0,1,335.814,577.267Z" transform="translate(-207.959 -336.168)" fill="#2f2e41"/>
    <path id="Path_393" data-name="Path 393" d="M325.058,280.382l23.48-1.21,10.906,17.232s20.52,3.431,19.1,27.61-24.966,45.4-24.966,45.4l1.006-3.45-1.748,4.994.224,2.8,2.384,2.97.245,3.071-2.113,4.86h0a2.777,2.777,0,0,1-2.633,4.233l-33.927-3.4c-.772-2.125-1.392-4.667-4.488-.435l-3.2-.31-13.286-1.287-.782-2.849a11.035,11.035,0,0,1,1.8-9.518h0a14.556,14.556,0,0,1,.842-10.929l.064-.127,1.411-1.176s-15.435-23.189,2.284-40.655l7.112-12.09,7.957-9.708Z" transform="translate(-239.817 -208.771)" fill="#4f46e5"/>
    <circle id="Ellipse_62" data-name="Ellipse 62" cx="22.265" cy="22.265" r="22.265" transform="translate(68.819 16.908)" fill="#ffb6b6"/>
    <path id="Path_394" data-name="Path 394" d="M355.1,211.861a10.723,10.723,0,0,1-3.59-5.893,23.038,23.038,0,0,0,.317,8.413c-1.206.907-2.375,1.768-3.481,2.547a23.646,23.646,0,0,0-3.409-5.992c-.136,2.865-.263,5.738-.39,8.6a31.27,31.27,0,0,1-4.451,2.511l.662-.789c4.75-7-7.542-19.88-2.792-26.87,1.333-1.958-4.687-17.433-9.274-18.131-4.079-.616-3.907.562-7.86,1.423a19.777,19.777,0,0,0-1.895-4.9,16.2,16.2,0,0,1-.154,5.167c-1.405.054-2.511-.841-4.007-1.07-9.546-1.46-8.576-11.785-5.92-15.058s11.513-4.243,15.592-5.3c.372-.363,1.215-.136,1.586-.48,7.818-7.155,18.274-8.34,27.684-5.169,10.034,3.382,16.291,9.927,19.5,20.018l.921,8.075c.826,2.6-.213,14.677-.921,17.308C370.472,206.5,364.613,201.39,355.1,211.861Z" transform="translate(-247.107 -140.612)" fill="#2f2e41"/>
    <path id="Path_395" data-name="Path 395" d="M448.111,415.524l-.877-68.269a11.02,11.02,0,0,0-11.019-10.846h0a11.02,11.02,0,0,0-11,11.6L428.3,418.9l.059,43.152a9.617,9.617,0,1,0,11.807,3.6Z" transform="translate(-307.651 -238.787)" fill="#ffb6b6"/>
    <path id="Path_396" data-name="Path 396" d="M604.869,645.052s-1.355,24.382-1.978,38.288H556.219c-.961-12.655-1.284-21.952-1.284-21.952l-2.554,21.952H505.2l-2.925-40.656,14.134-35.035s76.595-5.312,83.7,1.427S604.869,645.052,604.869,645.052Z" transform="translate(-349.495 -379.992)" fill="#2f2e41"/>
    <circle id="Ellipse_63" data-name="Ellipse 63" cx="25.494" cy="25.494" r="25.494" transform="translate(188.609 8.967)" fill="#ffb6b6"/>
    <path id="Path_397" data-name="Path 397" d="M629.19,157.175c-2.619,1.194-4.315,9.842-6.373,7.831s-1.921-4.627-4.7-5.369a9.4,9.4,0,0,0-6.7,1.171c-.365.191-.719.4-1.064.606-.228-.152-.454-.3-.7-.427a8.1,8.1,0,0,0-5.962-.671,7.948,7.948,0,0,1,3.928,2.895c-.684.458-1.377.918-2.086,1.325-5.921,3.417-14.346-4.013-20.578-6.8,3.9,7.326,1.982,10.36-1.408,17.936l-.117.431c.193-1.9-5.683-3.314-5.343-.641a32.188,32.188,0,0,0,2.8,7.792c-6.553-7.577-11.03-16.848-10.086-26.413.206-2.009.144-4.129,1.18-5.873s3.2-2.952,5.114-2.291a16.9,16.9,0,0,1,25.446-15.468c2.447,1.436,4.489,3.466,6.732,5.218s4.828,3.278,7.671,3.423c1.8.087,3.767-.353,5.317.581,1.8,1.084,2.1,3.354,2.372,5.538a8.091,8.091,0,0,0-4.359,1.814,7.917,7.917,0,0,1,4.766,1.022.492.492,0,0,1,.078.044C626.081,154.456,625.984,155.257,629.19,157.175Z" transform="translate(-385.372 -130.998)" fill="#2f2e41"/>
    <path id="Path_398" data-name="Path 398" d="M508.668,440.2c21.71-25.412,14.377-57.734,5.76-90.361l1.64-48.2a14.744,14.744,0,0,1,6.672-11.842L544.9,275.314l8.626-12.472,23.778,2.378,13.186,13.945,14.6,11.142a24.179,24.179,0,0,1,8.937,24.439l-13.967,63.165s5.842,32.745,2.277,36.362-12.749,0-5.466,4.062c8.741,4.872,16.688,3.973,12.265,8.4S610.31,437.3,610.31,437.3Z" transform="translate(-352.845 -200.206)" fill="#4f46e5"/>
    <path id="Path_399" data-name="Path 399" d="M509.985,680.455l3.619-25.785-14.442-4.123-2.857,27.4a8.717,8.717,0,1,0,13.679,2.51Z" transform="translate(-344.88 -403.532)" fill="#ffb6b6"/>
    <path id="Path_400" data-name="Path 400" d="M534.081,298.842s-41.107,13.379-42.087,23.168-.655,15.782-4.994,54.954l.229,105.52s27.56,5.9,24.734-.408-1.84-9.277-1.84-9.277,5.909-2.332,4.43-9.739,5.939-44.117,5.939-44.117l4.682-65.837Z" transform="translate(-341.481 -219.086)" fill="#4f46e5"/>
    <path id="Path_401" data-name="Path 401" d="M690.457,678.434l-1.926-25.967,14.68-3.17,1.06,27.526a8.717,8.717,0,1,1-13.814,1.611Z" transform="translate(-447.171 -402.876)" fill="#ffb6b6"/>
    <path id="Path_402" data-name="Path 402" d="M661.99,293.078s40.145,16.037,40.483,25.87-.378,15.791,1.391,55.163l-7.125,105.279s-27.887,4.087-24.654-2.024,2.443-9.137,2.443-9.137-5.744-2.713-3.784-10.008S667.7,413.81,667.7,413.81l-.368-66Z" transform="translate(-433.252 -216.063)" fill="#4f46e5"/>
  </g>
</svg>
