<svg id="Layer_1" data-name="Layer 1" xmlns="http://www.w3.org/2000/svg" viewBox="0 0 114.72 114.72"><defs><style>.cls-1{fill:#a3b2ff;}.cls-2{fill:none;stroke:#942500;stroke-miterlimit:10;}.cls-3{fill:#7b7bff;}.cls-4{fill:#6553ff;}.cls-5{fill:#4f46e5;}.cls-6{fill:#fff;}</style></defs><title>logo</title><circle class="cls-1" cx="57.36" cy="57.36" r="57.36"/><path class="cls-2" d="M149,148.15" transform="translate(-67.64 -67.64)"/><path class="cls-3" d="M181.31,114.11s-5.47,6.07-15.51-.43c-22.29-14.42-23.91-19.75-65.91-7.79C79.36,111.75,73,100.65,73,100.65s-15.32,28.69,6.34,59.09l92.46-2.05S185.89,138,181.31,114.11Z" transform="translate(-67.64 -67.64)"/><path class="cls-4" d="M181.33,135.78s-17.14-18-37.82-.77c-17.36,14.48-28.07,5.41-31.81,1.88a15.19,15.19,0,0,0-4.24-2.85c-5.64-2.51-18.73-6-38.67,2.32,0,0,3.91,20.61,19.1,32.1,0,0,24.79,22.71,57.65,10.08C145.54,178.54,173.4,170,181.33,135.78Z" transform="translate(-67.64 -67.64)"/><path class="cls-5" d="M79.39,159.74s25-7,52.11,8.9c0,0,17.9,9.43,34.32-3.38,0,0-16.73,18.08-40.82,17.06S88,170.74,79.39,159.74Z" transform="translate(-67.64 -67.64)"/><path class="cls-6" d="M134.11,82.15,98.67,102.28A7.68,7.68,0,0,0,94.79,109h0a7.4,7.4,0,0,0,4.11,6.64c3.47,1.72,9.86,4.42,21.66,8.52a1.28,1.28,0,0,1,.25,2.29l-14.71,8.88a6.75,6.75,0,0,0-2.89,3.51,17.49,17.49,0,0,0-.81,9.88,3.15,3.15,0,0,0,4.55,2l39.9-21.37,0,0c.33-.35,5.6-6-2-11l0,0L121,109.42a1.54,1.54,0,0,1-.27-2.75l14.42-8.82s6.53-4.23,4.43-13.35A3.72,3.72,0,0,0,134.11,82.15Z" transform="translate(-67.64 -67.64)"/><path class="cls-6" d="M148.33,146.05a10.21,10.21,0,1,0-15.09,13.73C142.19,155.08,146.52,149.2,148.33,146.05Z" transform="translate(-67.64 -67.64)"/><path class="cls-6" d="M136.35,161.91a10.11,10.11,0,0,0,4.12.88,10.2,10.2,0,0,0,9.66-13.51C147.13,153.29,142.39,158.59,136.35,161.91Z" transform="translate(-67.64 -67.64)"/></svg>