<svg id="undraw_things_to_say_re_jpcg" xmlns="http://www.w3.org/2000/svg" width="460.458" height="342.546" viewBox="0 0 460.458 342.546">
  <path id="Path_285" data-name="Path 285" d="M520.281,293.387c13.547,11.337,28.65,1.845,43.125,1.12,6.713-.336,13.412,1.282,20.027,2.489a68.874,68.874,0,0,1,18.277,5.655A38.088,38.088,0,0,1,617.1,316.075c.757,1.184,1.9.31,1.891-1.106-.091-15.028-6.589-13.811-13.372-12.7-6.449,1.054-11.932-5.347-18.3-6.724a178.646,178.646,0,0,0-20.159-2.873q-11.008-1.093-22.07-1.483-12.4-.438-24.816.01c-1.406.05-1.412,2.241,0,2.19Z" transform="translate(-347.973 -235.811)" fill="#3f3d56"/>
  <path id="Path_286" data-name="Path 286" d="M411.291,421.3a1.1,1.1,0,0,1-1.548,1.548q-13.427-11.511-26.854-23.007a.129.129,0,0,0-.036-.029,16.543,16.543,0,0,1-1.76-1.526c-8.331-.971-17.487-4.184-26.161-5.578-7.659,1.139-15.3,2.5-22.978,3.5a152.017,152.017,0,0,1-20.2,1.446c-5.5-.029-3.907-14.124-8.894-16.723-5.184-2.7-15.58,6.041-16.909.58a52.793,52.793,0,0,1-1.278-8.506V355.2c.708-7.754,13.054-5.362,18.917-10.772,8.8-8.119,11.786-27.166,23.044-27.392a310.26,310.26,0,0,1,40.18,1.76c10.879,1.2,22.32,2.358,32.382,6.995,4.315,1.993,8.382,13.522,11.354,17.268a26.217,26.217,0,0,1,5.483,15.245c.533,11.748-4.812,22.5-7.74,33.586C405.757,401.49,404.326,413.128,411.291,421.3Z" transform="translate(-284.678 -242.826)" fill="#f2f2f2"/>
  <path id="Path_287" data-name="Path 287" d="M384.31,404.739q13.613,11.668,27.23,23.332a1.1,1.1,0,0,0,1.549-1.549c-6.965-8.164-5.534-19.8-2.995-29.41,2.932-11.092,8.276-21.836,7.741-33.581a26.178,26.178,0,0,0-5.485-15.247A30.74,30.74,0,0,0,401,339.78c-10.061-4.636-21.5-5.8-32.384-7a310.038,310.038,0,0,0-40.175-1.762c-11.262.232-24.436.437-33.234,8.559-8.012,7.4-9.106,19.028-9.029,29.3.045,5.95.159,12.061,1.573,17.867,1.33,5.458,4.213,10.775,9.4,13.475,4.988,2.6,10.913,2.638,16.406,2.665a150.233,150.233,0,0,0,20.195-1.449c13.392-1.752,26.657-4.581,40.157-5.436,3.3-.209,6.617-.3,9.927-.233a1.1,1.1,0,0,0,0-2.19c-13.127-.274-26.119,1.98-39.034,4.033-12.492,1.986-25.263,3.857-37.943,2.853a23.053,23.053,0,0,1-8.067-1.866,14.556,14.556,0,0,1-6.024-5.318c-3.3-5.141-3.927-11.581-4.212-17.579a108.543,108.543,0,0,1,.144-15.582c.487-5.026,1.658-10.124,4.334-14.463,6.1-9.9,18.448-14.016,28.983-12.238,11.863,2,20.937,11.485,39.039.829,5.682-3.345,13.128,1.31,19.649,2.294a86.181,86.181,0,0,1,14.366,3.251,36.655,36.655,0,0,1,12.375,6.578,23.03,23.03,0,0,1,7.6,12.552c2.514,11.286-2.469,22.551-5.762,33.112-2.936,9.414-5.44,20.471-1.487,29.971a22.812,22.812,0,0,0,3.743,6.071l1.549-1.549q-13.613-11.668-27.23-23.332c-1.065-.913-2.621.63-1.549,1.549Z" transform="translate(-285.081 -246.601)" fill="#e6e6e6"/>
  <path id="Path_288" data-name="Path 288" d="M354.993,361.368H321.976a1.142,1.142,0,0,1,0-2.285h33.017a1.142,1.142,0,1,1,0,2.285Z" transform="translate(-294.435 -254.192)" fill="#fff"/>
  <path id="Path_289" data-name="Path 289" d="M354.993,394.732H321.976a1.142,1.142,0,0,1,0-2.285h33.017a1.142,1.142,0,1,1,0,2.285Z" transform="translate(-294.435 -263.196)" fill="#fff"/>
  <path id="Path_290" data-name="Path 290" d="M381.808,378.061H321.976a1.142,1.142,0,0,1,0-2.285h59.833a1.142,1.142,0,0,1,0,2.285Z" transform="translate(-294.435 -258.697)" fill="#fff"/>
  <path id="Path_291" data-name="Path 291" d="M460.193,500.537a1.1,1.1,0,0,1-1.548,1.548q-13.427-11.511-26.854-23.007a.13.13,0,0,0-.037-.029,16.522,16.522,0,0,1-1.76-1.526c-8.331-.971-17.487-4.184-26.161-5.578-7.659,1.139-16.757,9.8-24.438,10.806a151.991,151.991,0,0,1-20.2,1.446c-5.5-.029-3.907-17.774-8.894-20.374-5.184-2.7-14.12,2.39-15.449-3.071-.679-2.782-4.032-5.637-4.251-8.506V434.437c.708-7.754,5.842-15.435,11.706-20.845,8.8-8.119,21.97-8.331,33.229-8.557a310.271,310.271,0,0,1,40.18,1.76c10.879,1.2,22.32,2.358,32.382,6.995a30.8,30.8,0,0,1,11.354,8.506,26.218,26.218,0,0,1,5.483,15.245c.533,11.748-4.812,22.5-7.74,33.586C454.658,480.728,453.227,492.366,460.193,500.537Z" transform="translate(-297.072 -266.574)" fill="#f2f2f2"/>
  <path id="Path_292" data-name="Path 292" d="M434.31,480.739q13.613,11.668,27.23,23.332a1.1,1.1,0,0,0,1.549-1.549c-6.965-8.164-5.534-19.8-2.995-29.41,2.932-11.092,8.276-21.836,7.741-33.581a26.176,26.176,0,0,0-5.485-15.247A30.741,30.741,0,0,0,451,415.78c-10.061-4.636-21.5-5.8-32.384-7a310.039,310.039,0,0,0-40.175-1.762c-11.262.232-24.436.437-33.234,8.559-8.012,7.4-9.106,19.028-9.029,29.3.045,5.95.159,12.061,1.573,17.867,1.329,5.458,4.213,10.775,9.4,13.475,4.988,2.6,10.913,2.638,16.406,2.665a150.24,150.24,0,0,0,20.195-1.449c13.392-1.752,26.657-4.581,40.157-5.436,3.3-.209,6.617-.3,9.927-.233a1.1,1.1,0,0,0,0-2.19c-13.127-.274-26.119,1.98-39.034,4.033-12.492,1.986-25.263,3.858-37.943,2.853a23.054,23.054,0,0,1-8.067-1.866,14.557,14.557,0,0,1-6.024-5.318c-3.3-5.141-3.927-11.581-4.212-17.579a108.544,108.544,0,0,1,.144-15.582c.487-5.026,1.658-10.124,4.334-14.463,6.1-9.9,20.023-18.057,28.983-12.238,10.237,6.648,23.329,6.936,39.039.828,6.146-2.389,13.128,1.31,19.648,2.294a86.191,86.191,0,0,1,14.366,3.251,36.657,36.657,0,0,1,12.375,6.578,23.031,23.031,0,0,1,7.6,12.552c2.514,11.286-2.469,22.551-5.762,33.112-2.935,9.414-5.44,20.471-1.487,29.971a22.809,22.809,0,0,0,3.743,6.071l1.549-1.549q-13.613-11.668-27.23-23.332c-1.065-.913-2.621.63-1.549,1.549Z" transform="translate(-298.574 -267.11)" fill="#e6e6e6"/>
  <path id="Path_293" data-name="Path 293" d="M404.993,437.368H371.976a1.142,1.142,0,0,1,0-2.285h33.017a1.142,1.142,0,1,1,0,2.285Z" transform="translate(-307.928 -274.702)" fill="#fff"/>
  <path id="Path_294" data-name="Path 294" d="M404.993,470.732H371.976a1.142,1.142,0,0,1,0-2.285h33.017a1.142,1.142,0,1,1,0,2.285Z" transform="translate(-307.928 -283.705)" fill="#fff"/>
  <path id="Path_295" data-name="Path 295" d="M431.809,454.061H371.976a1.142,1.142,0,0,1,0-2.285h59.833a1.142,1.142,0,0,1,0,2.285Z" transform="translate(-307.928 -279.206)" fill="#fff"/>
  <path id="Path_296" data-name="Path 296" d="M719.3,588.977h-92.27a3.192,3.192,0,1,1,0-6.385H719.3a3.192,3.192,0,1,1,0,6.385Z" transform="translate(-376.203 -314.509)" fill="#f2f2f2"/>
  <path id="Path_297" data-name="Path 297" d="M719.3,682.216h-92.27a3.192,3.192,0,0,1,0-6.385H719.3a3.192,3.192,0,0,1,0,6.385Z" transform="translate(-376.203 -339.67)" fill="#f2f2f2"/>
  <path id="Path_298" data-name="Path 298" d="M794.235,635.627H627.026a3.193,3.193,0,0,1,0-6.385H794.235a3.192,3.192,0,0,1,0,6.385Z" transform="translate(-376.203 -327.098)" fill="#f2f2f2"/>
  <path id="Path_299" data-name="Path 299" d="M272.2,410.014l5.242,4.934,21.948-18.321-7.737-7.282Z" transform="translate(-73.456 -105.069)" fill="#ffb6b6"/>
  <path id="Path_300" data-name="Path 300" d="M561.743,653.037l-2.913-13.583,3.531-3.751-1.9-1.59-5.9-4.917-1.444-1.209L539.542,640.2l3.935,3.7,4.194-3.051-1.7,5.4,10.421,9.81a3.219,3.219,0,0,0,5.353-3.017Z" transform="translate(-353.456 -326.759)" fill="#2f2e41"/>
  <path id="Path_301" data-name="Path 301" d="M237.2,433.41l7.117,1.082,7.652-27.547-10.5-1.6Z" transform="translate(-64.011 -109.388)" fill="#ffb6b6"/>
  <path id="Path_302" data-name="Path 302" d="M539.788,670.017l-10.114-9.522.774-5.093-2.467-.229-7.65-.694-1.875-.174-4.233,17.759,5.339.808,1.718-4.894,1.668,5.412,14.149,2.152a3.219,3.219,0,0,0,2.691-5.525Z" transform="translate(-346.623 -333.861)" fill="#2f2e41"/>
  <path id="Path_303" data-name="Path 303" d="M590.6,391.189l20.409,36.554s-.852,75.179,1.861,77.967,5.168,5.289,2.712,5.267-1.664,17.762-1.664,17.762l-45.269,35.047L557.7,555.024l27.476-33.914L570,451.69s-10.9,65.649-12.866,67.614-3.15,1.951-1.084,3.922,0,6.431,0,6.431l-21.537,44.7-11.682-1.473s2.025-36.492,9.078-52.157V446.693c-.531,6.347,24.316-57.9,9.122-53.075C545.839,392.093,590.6,391.189,590.6,391.189Z" transform="translate(-348.947 -262.856)" fill="#2f2e41"/>
  <path id="Path_304" data-name="Path 304" d="M584.228,271.88H567.356l-2.389,9.555-12.973,3.587s-6.417,42.552-1.028,45.985,1.631,14.169,1.631,14.169-13.421,14.494-11.81,16.642,4.878-1.12,1.1,2.661-5.928,3.244-4.855,4.318a6.841,6.841,0,0,1,1.511,2.384l-4.63,12.057s24.593,4.885,36.94-2.094,39.725,6.442,39.725,6.442-1.408-7.046-2.583-8.086-3.914,1.589-2.008-1.873,3.517-1.851,1.906-3.462-8.589-23.084-8.589-23.084-5.368-11.81.537-16.642,8.154-20.678,8.154-20.678l-7.079-28.739L589.1,282.367Z" transform="translate(-351.936 -230.66)" fill="#e6e6e6"/>
  <path id="Path_305" data-name="Path 305" d="M507.342,414.808l4.052-16.243-8.956-3.61-3.674,17.325a5.6,5.6,0,1,0,8.577,2.527Z" transform="translate(-341.839 -263.873)" fill="#ffb6b6"/>
  <path id="Path_306" data-name="Path 306" d="M546.424,288.293l-.267-.046a15.522,15.522,0,0,0-13.766,4.486c-4.587,4.72-25.065,39.818-24.328,45.684.687,5.47.952,4.254-1.549,7.047s-3.453-1.46-3.492,4.355,2.183,5.765-.178,7.186-3.923.431-3.492,4.355a17.2,17.2,0,0,1-.369,6.336c-.14,1.371-3.531,10.17-3.531,10.17s9.98,2.68,14,6.692c0,0,.458-9.929,2.489-10.83s3.923-.431,3.352-2.983-3.5-3.682.089-3.593,9.143-19.019,9.143-19.019l24-43.786Z" transform="translate(-341.557 -235.016)" fill="#e6e6e6"/>
  <path id="Path_307" data-name="Path 307" d="M639.019,426.644l.721-16.725,9.612-.921-1.391,17.656a5.6,5.6,0,1,1-8.941-.009Z" transform="translate(-379.994 -267.662)" fill="#ffb6b6"/>
  <path id="Path_308" data-name="Path 308" d="M623.249,289.615l.269.032a15.522,15.522,0,0,1,11.928,8.206c3.06,5.827,12.742,45.292,10.371,50.708-2.211,5.051-2.119,3.809-.513,7.2s3.726-.421,2.113,5.166-3.729,4.908-1.867,6.942,3.64,1.526,2.114,5.166a17.2,17.2,0,0,0-1.444,6.18c-.255,1.355.5,10.754.5,10.754s-10.33-.261-15.327,2.445c0,0,2.377-9.651.685-11.091s-3.64-1.526-2.368-3.812,4.4-2.537.934-3.471-3.373-20.831-3.373-20.831l-10.594-48.795Z" transform="translate(-374.272 -235.446)" fill="#e6e6e6"/>
  <path id="Path_309" data-name="Path 309" d="M538.763,246.967c-.134,5.759,2.019,11.336,5.11,16.234a30.8,30.8,0,0,1,4.293-7.943,24.727,24.727,0,0,0,2.631,15.658,3.3,3.3,0,0,0,.282.181,9.705,9.705,0,0,0,8.442,1.035,18.933,18.933,0,0,1-1.627-22.944c1.337-1.933,3.066-3.642,3.894-5.841,1.308-3.509.051-7.373-.742-11.032-.741-3.405-.871-7.457,1.413-9.953a2.4,2.4,0,0,0-2.2-1.013,4.541,4.541,0,0,0-3.087,2.684,19.586,19.586,0,0,1-1.994,3.748c-1.685,2.038-4.555,2.52-6.974,3.595C542.348,233.985,538.9,240.559,538.763,246.967Z" transform="translate(-353.244 -217.02)" fill="#2f2e41"/>
  <path id="Path_310" data-name="Path 310" d="M596.063,244.378c-.335-1.171,1.972,5.99.859,6.119-5.07.582-12.031,3.61-15.562,5.023-.159-.019-.318-.037-.472-.06-.379-.042-.748-.1-1.113-.171-8.223-1.556-11.385-14.187-11.385-14.3,0-.568,1.363-16.164,3.51-16.395a15.829,15.829,0,0,1,1.7-.092h5.328a24.755,24.755,0,0,1,3.344-.485h.009c10.725-.817,19.182,5.72,18.392,13.675,0,.009-.014.018-.019.028-.229.342-.43.665-.608.974-.173.291-.318.568-.444.831-.978,2.031,1.535,4.587-.131,5.064-2.216.635,5.828,21.491-2.943,21.491C600.791,267.289,596.986,247.609,596.063,244.378Z" transform="translate(-361.24 -217.724)" fill="#2f2e41"/>
  <circle id="Ellipse_46" data-name="Ellipse 46" cx="12.614" cy="12.614" r="12.614" transform="translate(212.634 13.664)" fill="#ffb6b6"/>
  <path id="Path_311" data-name="Path 311" d="M599.441,238.287c-.21.111-.416.212-.627.314s-.44.212-.66.309c-4.224,1.916-7.662,2.128-9.748-.623a11.66,11.66,0,0,0-.959-4.2,6.753,6.753,0,0,1-1.113,4.2h-4.2c-4.327,2.872-6.549,3.172-3.546,12.6.837,2.627,4.166,17.913,2.857,20.179-.379-.042-4.41-16.784-4.774-16.853-8.223-1.556-13.448-15.1-12.779-15.869a14.123,14.123,0,0,1,1.464-6.283,14.452,14.452,0,0,1,5.491-5.974,25.469,25.469,0,0,1,4.387-1.648l.108-.028c.463-.125.936-.24,1.408-.337a25.886,25.886,0,0,1,2.956-.448c.07,0,.14-.009.206-.009a2.227,2.227,0,0,1,1.127.309s0,0,.009,0a2.123,2.123,0,0,1,.627.559,2.148,2.148,0,0,1,.458,1.334h4.677q.26,0,.519.014a12.542,12.542,0,0,1,12.091,11.791C599.436,237.848,599.441,238.065,599.441,238.287Z" transform="translate(-360.012 -217.635)" fill="#2f2e41"/>
  <circle id="Ellipse_47" data-name="Ellipse 47" cx="8.31" cy="8.31" r="8.31" transform="translate(203.54 0)" fill="#2f2e41"/>
  <path id="Path_312" data-name="Path 312" d="M682.551,547.205a1.657,1.657,0,0,0,1.2-2.872l-.114-.451.045-.108a4.45,4.45,0,0,1,8.208.03c1.342,3.233,3.052,6.472,3.472,9.89a13.162,13.162,0,0,1-.231,4.527,52.776,52.776,0,0,0,4.8-21.919,50.956,50.956,0,0,0-.316-5.683q-.262-2.32-.726-4.607A53.388,53.388,0,0,0,688.3,503.386a14.209,14.209,0,0,1-5.909-6.131,10.839,10.839,0,0,1-.986-2.962c.288.038,1.085-4.343.868-4.612.4-.608,1.118-.911,1.556-1.5,2.177-2.952,5.178-2.437,6.744,1.575,3.346,1.689,3.378,4.489,1.325,7.182-1.306,1.713-1.486,4.032-2.632,5.867.118.151.241.3.358.448a53.73,53.73,0,0,1,5.608,8.885,22.336,22.336,0,0,1,1.334-10.375c1.276-3.079,3.669-5.673,5.776-8.335a4.585,4.585,0,0,1,8.166,2.251c0,.039.008.078.013.118q-.47.265-.919.562a2.247,2.247,0,0,0,.906,4.09l.046.007a22.358,22.358,0,0,1-.589,3.344c2.7,10.453-3.132,14.259-11.464,14.431-.184.094-.363.189-.547.278a54.843,54.843,0,0,1,2.952,13.893,52.019,52.019,0,0,1-.038,8.4l.014-.1a13.745,13.745,0,0,1,4.692-7.937c3.611-2.966,8.713-4.059,12.608-6.443a2.58,2.58,0,0,1,3.951,2.51l-.016.1a15.1,15.1,0,0,0-1.693.816q-.469.265-.919.562a2.248,2.248,0,0,0,.906,4.09l.046.007.094.014a22.381,22.381,0,0,1-4.117,6.447c-1.69,9.125-8.949,9.99-16.713,7.333h0a54.822,54.822,0,0,1-3.683,10.752H682.88c-.047-.146-.09-.3-.132-.443a14.956,14.956,0,0,0,3.641-.217c-.976-1.2-1.952-2.405-2.929-3.6a.8.8,0,0,1-.061-.071c-.5-.613-.995-1.221-1.49-1.834h0a21.892,21.892,0,0,1,.642-5.578Z" transform="translate(-391.74 -288.522)" fill="#f2f2f2"/>
  <path id="Path_313" data-name="Path 313" d="M419.652,682.895a.866.866,0,0,0,.869.869h360.17a.869.869,0,0,0,0-1.738H420.521a.866.866,0,0,0-.869.869Z" transform="translate(-321.102 -341.342)" fill="#ccc"/>
  <path id="Path_314" data-name="Path 314" d="M591.366,392.6c1.016,1.072-.524,2.464-1.709,1.545q-14.824-11.492-29.647-22.97a.14.14,0,0,0-.04-.029,17.879,17.879,0,0,1-1.943-1.524c-9.2-.969-19.305-4.177-28.881-5.569-8.456,1.137-16.887,2.493-25.367,3.5a185.251,185.251,0,0,1-22.3,1.443c-6.07-.029-12.607-.066-18.112-2.661-5.723-2.7-8.907-8-10.374-13.457a48.041,48.041,0,0,1-1.411-8.493V326.6c.782-7.742,3.168-15.411,9.641-20.812,9.713-8.106,24.254-8.318,36.684-8.544A378.469,378.469,0,0,1,542.269,299c12.01,1.2,24.641,2.355,35.749,6.984a33.931,33.931,0,0,1,12.534,8.493,24.68,24.68,0,0,1,6.054,15.221c.589,11.729-5.312,22.46-8.544,33.533C585.256,372.82,583.676,384.44,591.366,392.6Z" transform="translate(-329.72 -237.486)" fill="#4f46e5"/>
  <path id="Path_315" data-name="Path 315" d="M529.993,323.368H496.976a1.142,1.142,0,0,1,0-2.285h33.017a1.142,1.142,0,1,1,0,2.285Z" transform="translate(-341.66 -243.937)" fill="#fff"/>
  <path id="Path_316" data-name="Path 316" d="M529.993,356.732H496.976a1.142,1.142,0,0,1,0-2.285h33.017a1.142,1.142,0,1,1,0,2.285Z" transform="translate(-341.66 -252.941)" fill="#fff"/>
  <path id="Path_317" data-name="Path 317" d="M556.808,340.061H496.976a1.142,1.142,0,0,1,0-2.285h59.833a1.142,1.142,0,1,1,0,2.285Z" transform="translate(-341.66 -248.442)" fill="#fff"/>
  <path id="Path_318" data-name="Path 318" d="M639.97,324.755a26.231,26.231,0,0,1,4.261,16.3c-.457,5-2.508,9.7-4.75,14.13-2.323,4.591-4.924,9.049-6.824,13.843a34.359,34.359,0,0,0-2.244,16.474c.376,3.631,1.108,7.212,1.8,10.793l2.107,10.931,1.831-1.066-30.284-26.182c-1.062-.918-2.618.625-1.549,1.549L634.6,407.705a1.105,1.105,0,0,0,1.831-1.066c-1.238-6.422-2.7-12.847-3.607-19.326a36.382,36.382,0,0,1-.218-9.877,32.949,32.949,0,0,1,1.962-7.314c3.632-9.491,10.435-17.794,11.747-28.113a28.077,28.077,0,0,0-4.455-18.36c-.747-1.192-2.643-.094-1.891,1.106Z" transform="translate(-370.839 -244.492)" fill="#3f3d56"/>
  <path id="Path_319" data-name="Path 319" d="M567.875,361.8l-44.788,5.3-22.394,2.649c-6.822.807-13.932,1.94-20.749.512-11.477-2.4-18.6-12.8-20.845-23.763-1.388-6.784-.9-13.882.271-20.66.622-3.613,1.444-7.189,2.331-10.745.791-3.169,1.381-6.582,2.748-9.566a17.715,17.715,0,0,1,11.754-9.894,35,35,0,0,1,4.879-.646q2.763-.277,5.53-.51,5.534-.466,11.081-.755,2.773-.145,5.548-.245c1.405-.051,1.412-2.242,0-2.19q-11.548.423-23.051,1.6a23.667,23.667,0,0,0-8.833,2.25,19.527,19.527,0,0,0-6.281,5.209,21.136,21.136,0,0,0-3.765,7.514c-1.008,3.63-1.923,7.3-2.757,10.968-1.682,7.4-2.892,15.035-2.33,22.647.831,11.258,6.221,23.269,16.681,28.629,6.177,3.165,13.226,3.307,19.994,2.7,7.548-.674,15.076-1.728,22.6-2.619L562.1,364.67l5.779-.684c1.383-.164,1.4-2.356,0-2.19Z" transform="translate(-330.934 -235.895)" fill="#3f3d56"/>
</svg>
