<svg id="Layer_1" data-name="Layer 1" xmlns="http://www.w3.org/2000/svg" viewBox="0 0 188.95 161.79"><defs><style>.cls-1{fill:#7b7bff;}.cls-2{fill:#f1f1f1;}.cls-3{fill:#cacaca;}.cls-4{fill:#f2f2f2;}.cls-5{fill:#e6e6e6;}.cls-6{fill:#feb8b8;}.cls-7{fill:#2f2e41;}.cls-8{fill:#4f46e5;}.cls-9{fill:#fbbebe;}.cls-10{fill:#3f3d56;}.cls-11{fill:#fff;}</style></defs><title>forsatShoqli</title><path id="Path_165" data-name="Path 165" class="cls-1" d="M47.12,193c-25-14.63-19.73-39-4.59-63.59S82.73,80.07,107.7,94.7s49.85,68.65,34.7,93.23S72.09,207.64,47.12,193Z" transform="translate(-29.78 -43.39)"/><path id="Path_166" data-name="Path 166" class="cls-1" d="M121.61,97.82c-26.36,11.93-23.7,36.73-11.2,62.75s34.81,53.29,61.17,41.36,56.75-63.07,44.26-89.1S148,85.88,121.61,97.82Z" transform="translate(-29.78 -43.39)"/><path id="Path_164" data-name="Path 164" class="cls-1" d="M48,103.29c-9.23,27.42,10.72,42.37,38.28,51s62.72,10.85,72-16.57-7.46-84.51-35-93.11S57.24,75.87,48,103.29Z" transform="translate(-29.78 -43.39)"/><g id="undraw_coding_re_iv62" data-name="undraw coding re iv62"><path id="Path_149" data-name="Path 149" class="cls-2" d="M62.29,158.33a14.18,14.18,0,0,0-4.65,7.45A12.06,12.06,0,0,0,70.76,156,14,14,0,0,0,62.29,158.33Z" transform="translate(-29.78 -43.39)"/><path id="Path_150" data-name="Path 150" class="cls-2" d="M63.8,159.6a14,14,0,0,1-6.1,6.32,12.07,12.07,0,0,1,6.3-15.1A14,14,0,0,1,63.8,159.6Z" transform="translate(-29.78 -43.39)"/><path id="Path_151" data-name="Path 151" class="cls-3" d="M168,147.55h0a36.63,36.63,0,0,1-.3-7.83l.3-4.33h0C166.33,138.72,166.71,143.09,168,147.55Z" transform="translate(-29.78 -43.39)"/><path id="Path_152" data-name="Path 152" class="cls-3" d="M169.3,148.27h0a26.84,26.84,0,0,1-.14-4.66l.14-2.57h0C168.5,143,168.68,145.62,169.3,148.27Z" transform="translate(-29.78 -43.39)"/><path id="Path_153" data-name="Path 153" class="cls-4" d="M175.09,151.46v1.45a.43.43,0,0,1-.43.43h-.72a.15.15,0,0,0-.15.14h0v11.87a.43.43,0,0,1-.43.43h-8.83a.44.44,0,0,1-.44-.43V153.49a.15.15,0,0,0-.14-.15h-.87a.43.43,0,0,1-.43-.43v-1.45a.44.44,0,0,1,.43-.44h11.58A.44.44,0,0,1,175.09,151.46Z" transform="translate(-29.78 -43.39)"/><rect id="Rectangle_11" data-name="Rectangle 11" class="cls-5" x="134.32" y="110.26" width="9.7" height="0.43"/><path id="Path_154" data-name="Path 154" class="cls-5" d="M173.79,160a12.46,12.46,0,0,1-9.84,0V157a15.35,15.35,0,0,1,9.84,0Z" transform="translate(-29.78 -43.39)"/><circle id="Ellipse_276" data-name="Ellipse 276" class="cls-6" cx="89.65" cy="56.75" r="13.12"/><path id="Path_1461" data-name="Path 1461" class="cls-7" d="M131.68,88.83a15.1,15.1,0,0,0-8.61-6.59l-1.61,1.17V81.89a13.36,13.36,0,0,0-2.6-.16L117.47,83V81.84A15,15,0,0,0,107.11,88c-3,4.35-3.53,10.4-.56,14.78.81-2.5,1.8-4.85,2.61-7.36a7.34,7.34,0,0,0,1.93,0l1-2.31.27,2.22c3.07-.27,7.63-.86,10.54-1.4l-.28-1.7,1.69,1.41c.9-.2,1.43-.39,1.38-.53,2.17,3.49,4.82,5.72,7,9.21C133.51,97.41,134.45,93.32,131.68,88.83Z" transform="translate(-29.78 -43.39)"/><path id="Path_155" data-name="Path 155" class="cls-8" d="M147.64,133.87a26.64,26.64,0,0,0-2.17-7.92c-.83-1.6-2.15-3.13-3.92-3.44a4,4,0,0,1-1-.24c-.52-.25-7.5-4.24-8.62-4.93-.95-.6-2.45-1.7-3.21-1.7s-3.69.66-15.11-.23a39.41,39.41,0,0,0-5.57,2.74s-11.86,6.32-12.3,6.3a2.59,2.59,0,0,0-2.1,1.18,7.89,7.89,0,0,0-1,2.33c2.59,5.75,5,11.51,7.53,17.26a1.56,1.56,0,0,1,.19.7,2,2,0,0,1-.32.71c-1.27,2-1.23,4.59-1.09,7s.31,4.92-.76,7.06c-.29.59-.67,1.13-1,1.72a16.49,16.49,0,0,0-.5,7l47.36,1.36C143.11,168,147.64,133.87,147.64,133.87Z" transform="translate(-29.78 -43.39)"/><path id="Path_1421" data-name="Path 1421" class="cls-9" d="M88.58,145.47a8,8,0,0,0,0,2.07l.68,9.74c.06.92.12,1.84.21,2.76.16,1.77.41,3.54.71,5.3a.93.93,0,0,0,1,.91,34.4,34.4,0,0,0,9.12.44c4.65-.26,16.56-.75,17.28-1.7a2.48,2.48,0,0,0-.64-3.24c-.95-.76-16.66-2.62-16.66-2.62a15.53,15.53,0,0,1,1.06-3.52,18.37,18.37,0,0,0,1.54-6.36,6.94,6.94,0,0,0-2.61-5.76A8.65,8.65,0,0,0,95,142.31c-1.31,0-3.57-.27-4.77.24C89.3,143,88.75,144.54,88.58,145.47Z" transform="translate(-29.78 -43.39)"/><path id="Path_1430" data-name="Path 1430" class="cls-8" d="M92.53,128.14A2.28,2.28,0,0,0,92,129a39.53,39.53,0,0,0-3.33,13.6,1.49,1.49,0,0,1-.15.66,3.15,3.15,0,0,1-.35.38,1.29,1.29,0,0,0,.15,1.83h0a.18.18,0,0,1,.07,0,2.56,2.56,0,0,1,2.15-1c4-.31,7.85,1.53,11.83,1.39-.28-1-.68-1.9-.91-2.88-1-4.36,1.51-9.11,0-13.32a3.38,3.38,0,0,0-1.64-2,4.17,4.17,0,0,0-1.05-.28c-1-.18-3-1-4-.65-.36.12-.5.46-.8.66A7.94,7.94,0,0,0,92.53,128.14Z" transform="translate(-29.78 -43.39)"/><path id="Path_1421-2" data-name="Path 1421-2" class="cls-9" d="M147.67,142.55c-1.2-.51-3.46-.2-4.77-.23a8.58,8.58,0,0,0-5.19,1.18,7,7,0,0,0-2.61,5.76,18.37,18.37,0,0,0,1.54,6.35,15.53,15.53,0,0,1,1.06,3.52S122,161,121,161.76a2.46,2.46,0,0,0-.64,3.23c.72.95,23.42,1.9,26.41,1.26a.92.92,0,0,0,1-.91c.3-1.77.55-3.53.71-5.3.09-.92.15-1.84.21-2.76l.68-9.74a8.43,8.43,0,0,0,0-2.07C149.17,144.54,148.62,143,147.67,142.55Z" transform="translate(-29.78 -43.39)"/><path id="Path_1430-2" data-name="Path 1430-2" class="cls-8" d="M144,127.36c-.3-.2-.44-.54-.8-.66-1-.31-3,.47-4,.65a4.29,4.29,0,0,0-1.05.28,3.45,3.45,0,0,0-1.64,2c-1.55,4.2,1,9,0,13.32-.23,1-.63,1.91-.91,2.88,4,.14,7.86-1.7,11.83-1.39a2.55,2.55,0,0,1,2.15,1l.07,0a1.31,1.31,0,0,0,.16-1.84h0a3.07,3.07,0,0,1-.34-.38,1.37,1.37,0,0,1-.16-.66A39.64,39.64,0,0,0,145.91,129a2.33,2.33,0,0,0-.52-.83A7.94,7.94,0,0,0,144,127.36Z" transform="translate(-29.78 -43.39)"/><circle id="Ellipse_29" data-name="Ellipse 29" class="cls-9" cx="85.76" cy="119.79" r="3.54"/><circle id="Ellipse_30" data-name="Ellipse 30" class="cls-9" cx="93.6" cy="119.79" r="3.54"/><path id="Path_156" data-name="Path 156" class="cls-10" d="M145.24,171.16H96.6A2.14,2.14,0,0,1,94.46,169V139.51a2.14,2.14,0,0,1,2.14-2.14h48.64a2.14,2.14,0,0,1,2.14,2.14V169A2.14,2.14,0,0,1,145.24,171.16Z" transform="translate(-29.78 -43.39)"/><circle id="Ellipse_263" data-name="Ellipse 263" class="cls-11" cx="91.02" cy="110.87" r="1.42"/><path id="Path_157" data-name="Path 157" class="cls-2" d="M200.51,165.21H37.41v5h9.65v1.16H190.87v-1.16h9.64Z" transform="translate(-29.78 -43.39)"/><path id="Path_158" data-name="Path 158" class="cls-8" d="M107.37,105h0a4,4,0,0,1-3.81-4.13h0V98.84a4,4,0,0,1,3.81-4.13h0V105Z" transform="translate(-29.78 -43.39)"/><path id="Path_159" data-name="Path 159" class="cls-8" d="M131.73,94.71h0a4,4,0,0,1,3.82,4.13v2.06a4,4,0,0,1-3.82,4.13h0Z" transform="translate(-29.78 -43.39)"/><path id="Path_160" data-name="Path 160" class="cls-8" d="M133.73,99.17h-.61c0-8.3-6.24-15.06-13.92-15.06s-13.93,6.75-13.93,15.06h-.61c0-8.67,6.52-15.72,14.54-15.72S133.73,90.5,133.73,99.17Z" transform="translate(-29.78 -43.39)"/></g></svg>