<svg id="Layer_1" data-name="Layer 1" xmlns="http://www.w3.org/2000/svg" viewBox="0 0 188.75 180.01"><defs><style>.cls-1{fill:#7b7bff;}.cls-2{fill:#fff;}.cls-3{fill:#4f46e5;}.cls-4{fill:#2f2e41;}.cls-5{fill:#ccc;}.cls-6{fill:#f2f2f2;}.cls-7{fill:#e6e6e6;}.cls-8{fill:#3f3d56;}</style></defs><title>madrakMotabar</title><path id="Path_168" data-name="Path 168" class="cls-1" d="M83.79,40.09c26.51-11.6,43.15,7,54.13,33.67s16.31,61.53-10.19,73.13-84.85,0-95.83-26.73S57.28,51.69,83.79,40.09Z" transform="translate(-29.89 -36.57)"/><path id="Path_169" data-name="Path 169" class="cls-1" d="M155.22,148.76c5.84-28.34-15.78-40.76-44.18-46S47.46,99.65,41.62,128s17.67,83,46.07,88.17S149.38,177.1,155.22,148.76Z" transform="translate(-29.89 -36.57)"/><path id="Path_167" data-name="Path 167" class="cls-1" d="M120.16,85.12c16.75-23.6,40.58-16.25,63.75,1s45.66,44.34,28.92,67.94-72.74,43.68-95.91,26.45S103.42,108.72,120.16,85.12Z" transform="translate(-29.89 -36.57)"/><g id="undraw_hiring_re_yk5n" data-name="undraw hiring re yk5n"><path id="Path_78" data-name="Path 78" class="cls-2" d="M110.51,175.81H50.44A2.86,2.86,0,0,1,47.58,173V91.41a2.86,2.86,0,0,1,2.86-2.85h60.07a2.86,2.86,0,0,1,2.85,2.85V173A2.85,2.85,0,0,1,110.51,175.81Z" transform="translate(-29.89 -36.57)"/><path id="Path_79" data-name="Path 79" class="cls-2" d="M77.77,109.78a11.16,11.16,0,0,1-7.7,10.61l-.2.07c-.29.09-.59.16-.89.23a12.94,12.94,0,0,1-1.64.23l-.73,0a11.09,11.09,0,0,1-3.69-.63l-.1,0a11.16,11.16,0,1,1,14.95-10.5Z" transform="translate(-29.89 -36.57)"/><circle id="Ellipse_21" data-name="Ellipse 21" class="cls-3" cx="36.45" cy="75.18" r="5.43"/><path id="Path_80" data-name="Path 80" class="cls-4" d="M66.66,114.67v-.2a1.61,1.61,0,0,1-1-.22.62.62,0,0,1-.24-.46.34.34,0,0,1,.11-.29.62.62,0,0,1,.63,0l.17.08-.32-2.35-.2,0,.27,2a.7.7,0,0,0-.68.1.51.51,0,0,0-.18.45.83.83,0,0,0,.32.62A1.83,1.83,0,0,0,66.66,114.67Z" transform="translate(-29.89 -36.57)"/><rect id="Rectangle_5" data-name="Rectangle 5" class="cls-4" x="33.88" y="74.85" width="1.09" height="0.2"/><rect id="Rectangle_6" data-name="Rectangle 6" class="cls-4" x="37.33" y="74.85" width="1.09" height="0.2"/><path id="Path_81" data-name="Path 81" class="cls-4" d="M67.88,119.34a.75.75,0,0,0,0-.2,1,1,0,0,0-1-1H65.52a1,1,0,0,0-1,1,1.5,1.5,0,0,0,0,.2,5.25,5.25,0,0,0-1.5.74l-.26.2.1,0a11.25,11.25,0,0,0,3.69.62l.72,0a11.69,11.69,0,0,0,1.65-.23c.3-.07.59-.14.88-.23A5.41,5.41,0,0,0,67.88,119.34Z" transform="translate(-29.89 -36.57)"/><path id="Path_82" data-name="Path 82" class="cls-4" d="M67.7,120.79a.72.72,0,0,0-.37.13,12.85,12.85,0,0,0,1.65-.23Z" transform="translate(-29.89 -36.57)"/><path id="Path_83" data-name="Path 83" class="cls-4" d="M71.26,110.46,61.83,107a.41.41,0,0,1-.24-.52l0-.15a4.25,4.25,0,0,1,5.19-2.55l2.9,1.06A4,4,0,0,1,71.87,110l-.09.23A.42.42,0,0,1,71.26,110.46Z" transform="translate(-29.89 -36.57)"/><path id="Path_84" data-name="Path 84" class="cls-4" d="M71.77,110.65c-13.14.48-14.29-1.17-10.29-3.77l.85-1.56,9.74,3.55Z" transform="translate(-29.89 -36.57)"/><ellipse id="Ellipse_22" data-name="Ellipse 22" class="cls-4" cx="68.37" cy="104.36" rx="0.46" ry="0.86" transform="translate(-81.14 103.22) rotate(-73.27)"/><path id="Path_85" data-name="Path 85" class="cls-5" d="M66.61,121.24a11.39,11.39,0,0,1-3.79-.64l-.11,0a11.46,11.46,0,1,1,7.45.12l-.21.07A8.65,8.65,0,0,1,69,121a12.06,12.06,0,0,1-1.69.24C67.11,121.24,66.86,121.24,66.61,121.24Zm0-22.31A10.85,10.85,0,0,0,62.92,120l.1,0a10.7,10.7,0,0,0,3.59.6c.23,0,.47,0,.7,0a10.8,10.8,0,0,0,1.6-.22c.3-.07.58-.14.86-.23l.2-.06a10.85,10.85,0,0,0-3.36-21.17Z" transform="translate(-29.89 -36.57)"/><path id="Path_86" data-name="Path 86" class="cls-6" d="M51.42,144.08" transform="translate(-29.89 -36.57)"/><path id="Path_87" data-name="Path 87" class="cls-5" d="M110.51,175.81H50.44A2.86,2.86,0,0,1,47.58,173V91.41a2.86,2.86,0,0,1,2.86-2.85h60.07a2.86,2.86,0,0,1,2.85,2.85V173A2.85,2.85,0,0,1,110.51,175.81ZM50.44,88.89a2.53,2.53,0,0,0-2.52,2.52V173a2.52,2.52,0,0,0,2.52,2.52h60.07A2.53,2.53,0,0,0,113,173V91.41a2.54,2.54,0,0,0-2.52-2.52Z" transform="translate(-29.89 -36.57)"/><path id="Path_88" data-name="Path 88" class="cls-7" d="M98.88,109.74h-17a1.35,1.35,0,0,1,0-2.69h17a1.35,1.35,0,1,1,0,2.69Z" transform="translate(-29.89 -36.57)"/><path id="Path_89" data-name="Path 89" class="cls-7" d="M104.43,114.28H81.88a1.35,1.35,0,0,1,0-2.69h22.55a1.35,1.35,0,0,1,0,2.69Z" transform="translate(-29.89 -36.57)"/><path id="Path_90" data-name="Path 90" class="cls-7" d="M98.86,131.68H56.52a1.34,1.34,0,0,1,0-2.68H98.86a1.34,1.34,0,0,1,0,2.68Z" transform="translate(-29.89 -36.57)"/><path id="Path_91" data-name="Path 91" class="cls-7" d="M104.4,136.22H56.52a1.35,1.35,0,1,1,0-2.69H104.4a1.35,1.35,0,1,1,0,2.69Z" transform="translate(-29.89 -36.57)"/><path id="Path_92" data-name="Path 92" class="cls-7" d="M98.86,146.65H56.52a1.34,1.34,0,0,1,0-2.68H98.86a1.34,1.34,0,0,1,0,2.68Z" transform="translate(-29.89 -36.57)"/><path id="Path_93" data-name="Path 93" class="cls-7" d="M104.4,151.19H56.52a1.35,1.35,0,1,1-.07-2.69h48a1.35,1.35,0,1,1,0,2.69Z" transform="translate(-29.89 -36.57)"/><path id="Path_94" data-name="Path 94" class="cls-7" d="M98.86,161.62H56.52a1.34,1.34,0,0,1,0-2.68H98.86a1.35,1.35,0,0,1,0,2.69Z" transform="translate(-29.89 -36.57)"/><path id="Path_95" data-name="Path 95" class="cls-7" d="M104.4,166.16H56.52a1.35,1.35,0,1,1-.07-2.69h48a1.35,1.35,0,1,1,0,2.69Z" transform="translate(-29.89 -36.57)"/><path id="Path_96" data-name="Path 96" class="cls-2" d="M188.7,155.34H128.63a2.86,2.86,0,0,1-2.85-2.85V70.94a2.85,2.85,0,0,1,2.85-2.85H188.7a2.86,2.86,0,0,1,2.86,2.85v81.55A2.86,2.86,0,0,1,188.7,155.34Z" transform="translate(-29.89 -36.57)"/><path id="Path_97" data-name="Path 97" class="cls-5" d="M188.7,155.34H128.63a2.86,2.86,0,0,1-2.85-2.85V70.94a2.85,2.85,0,0,1,2.85-2.85H188.7a2.86,2.86,0,0,1,2.86,2.85v81.55A2.86,2.86,0,0,1,188.7,155.34ZM128.63,68.42a2.53,2.53,0,0,0-2.52,2.52v81.55a2.54,2.54,0,0,0,2.52,2.52H188.7a2.53,2.53,0,0,0,2.52-2.52V70.94a2.52,2.52,0,0,0-2.52-2.52Z" transform="translate(-29.89 -36.57)"/><path id="Path_98" data-name="Path 98" class="cls-2" d="M156,89.2A11.16,11.16,0,1,1,144.83,78h0A11.16,11.16,0,0,1,156,89.2Z" transform="translate(-29.89 -36.57)"/><path id="Path_99" data-name="Path 99" class="cls-3" d="M150,91.11c-.13,7.14-10.74,7.13-10.86,0C139.25,84,149.87,84,150,91.11Z" transform="translate(-29.89 -36.57)"/><path id="Path_100" data-name="Path 100" class="cls-4" d="M144.34,93.32v-.2c1.4.19,1.7-1.54.29-.9l.32-2.35.2,0-.28,2C146.36,91.68,145.81,93.53,144.34,93.32Z" transform="translate(-29.89 -36.57)"/><rect id="Rectangle_7" data-name="Rectangle 7" class="cls-4" x="116.26" y="53.5" width="1.09" height="0.2"/><rect id="Rectangle_8" data-name="Rectangle 8" class="cls-4" x="112.81" y="53.5" width="1.09" height="0.2"/><path id="Path_101" data-name="Path 101" class="cls-4" d="M146.32,98.7c.21-1.44-1.47-1.15-2.36-1.17a1,1,0,0,0-1,1,.68.68,0,0,0,0,.2,5.24,5.24,0,0,0-1.88,1,11.15,11.15,0,0,0,7.15.08A5.21,5.21,0,0,0,146.32,98.7Z" transform="translate(-29.89 -36.57)"/><path id="Path_102" data-name="Path 102" class="cls-4" d="M142,88.55c1-.59,2.22-.14,3.26.1,2,.61,4.74-.15,5-2.5.25-2.18-2.74-3.4-3.7-1.22l.28,0c-3.1-4.6-8.48-4.43-8.45,1.9a.15.15,0,1,0,.3,0c-.11-3.73,2.36-6.28,5.85-3.88a10.84,10.84,0,0,1,2,2.13c.36.41.44-1.34,2.18-.88,1.91.74,1.29,3.48-.42,4.08-2.12,1.08-4.4-1-6.48.05a.15.15,0,0,0-.06.2.15.15,0,0,0,.21.06h0Z" transform="translate(-29.89 -36.57)"/><path id="Path_103" data-name="Path 103" class="cls-5" d="M144.83,100.66a11.45,11.45,0,1,1,3.55-.56A11.44,11.44,0,0,1,144.83,100.66Zm0-22.31A10.86,10.86,0,1,0,155.68,89.2h0a10.85,10.85,0,0,0-10.85-10.85Z" transform="translate(-29.89 -36.57)"/><path id="Path_104" data-name="Path 104" class="cls-7" d="M177.07,89.27h-17a1.35,1.35,0,0,1-.07-2.69h17.07a1.35,1.35,0,1,1,0,2.69Z" transform="translate(-29.89 -36.57)"/><path id="Path_105" data-name="Path 105" class="cls-7" d="M182.62,93.8H160.08a1.35,1.35,0,1,1,0-2.69h22.54a1.35,1.35,0,0,1,0,2.69Z" transform="translate(-29.89 -36.57)"/><path id="Path_106" data-name="Path 106" class="cls-7" d="M177.05,111.21H134.71a1.35,1.35,0,0,1,0-2.69h42.34a1.35,1.35,0,0,1,0,2.69Z" transform="translate(-29.89 -36.57)"/><path id="Path_107" data-name="Path 107" class="cls-7" d="M182.6,115.75H134.71a1.35,1.35,0,0,1,0-2.69H182.6a1.35,1.35,0,0,1,0,2.69Z" transform="translate(-29.89 -36.57)"/><path id="Path_108" data-name="Path 108" class="cls-7" d="M177.05,126.18H134.71a1.35,1.35,0,0,1,0-2.69h42.34a1.35,1.35,0,0,1,.07,2.69Z" transform="translate(-29.89 -36.57)"/><path id="Path_109" data-name="Path 109" class="cls-7" d="M182.6,130.72H134.71a1.35,1.35,0,0,1,0-2.69H182.6a1.35,1.35,0,0,1,0,2.69Z" transform="translate(-29.89 -36.57)"/><path id="Path_110" data-name="Path 110" class="cls-7" d="M177.05,141.15H134.71a1.35,1.35,0,0,1,0-2.69h42.34a1.35,1.35,0,0,1,.07,2.69Z" transform="translate(-29.89 -36.57)"/><path id="Path_111" data-name="Path 111" class="cls-7" d="M182.6,145.69H134.71a1.35,1.35,0,0,1,0-2.69H182.6a1.35,1.35,0,0,1,0,2.69Z" transform="translate(-29.89 -36.57)"/><path id="Path_112" data-name="Path 112" class="cls-2" d="M152.46,190.41H92.39a2.86,2.86,0,0,1-2.86-2.85V106a2.86,2.86,0,0,1,2.86-2.85h60.07a2.85,2.85,0,0,1,2.85,2.85v81.55A2.86,2.86,0,0,1,152.46,190.41Z" transform="translate(-29.89 -36.57)"/><path id="Path_113" data-name="Path 113" class="cls-2" d="M97.4,124.15a11.06,11.06,0,0,0,3.28,7.9l.26.26a11.12,11.12,0,0,0,1.78,1.35l.36.22a11.33,11.33,0,0,0,2,.88l.37.11a11.18,11.18,0,0,0,6.77-.19l.13,0a11.16,11.16,0,1,0-15-10.49Z" transform="translate(-29.89 -36.57)"/><path id="Path_114" data-name="Path 114" class="cls-4" d="M106.2,129.62a3.47,3.47,0,0,1-.89,2.34,2.53,2.53,0,0,1-2.29.88,1.63,1.63,0,0,1-1.36-1.7A1.24,1.24,0,0,1,103,130a.76.76,0,0,1,.21,0,1.06,1.06,0,0,1,.71,1.32,1,1,0,0,1-.29.47c-.15.12-.36-.09-.21-.21a.77.77,0,0,0,0-1.08.8.8,0,0,0-.27-.18.94.94,0,0,0-1.2.61.93.93,0,0,0,0,.23,1.34,1.34,0,0,0,1.16,1.37,2.22,2.22,0,0,0,1.92-.74,3.17,3.17,0,0,0,.85-2.19.16.16,0,0,1,.18-.12.15.15,0,0,1,.12.12Z" transform="translate(-29.89 -36.57)"/><circle id="Ellipse_23" data-name="Ellipse 23" class="cls-3" cx="79.28" cy="89.56" r="5.43"/><path id="Path_115" data-name="Path 115" class="cls-4" d="M108.89,128.44v-.2a1.71,1.71,0,0,0,1-.21.65.65,0,0,0,.24-.46.39.39,0,0,0-.12-.3.62.62,0,0,0-.63,0l-.17.07.33-2.35.2,0-.28,2a.72.72,0,0,1,.68.1.56.56,0,0,1,.19.46.79.79,0,0,1-.33.61A1.81,1.81,0,0,1,108.89,128.44Z" transform="translate(-29.89 -36.57)"/><rect id="Rectangle_9" data-name="Rectangle 9" class="cls-4" x="80.81" y="88.62" width="1.09" height="0.2"/><rect id="Rectangle_10" data-name="Rectangle 10" class="cls-4" x="77.36" y="88.62" width="1.09" height="0.2"/><path id="Path_116" data-name="Path 116" class="cls-4" d="M105.47,134.87a11.1,11.1,0,0,0,6.77-.19l.13,0a5.32,5.32,0,0,0-1.72-.89.79.79,0,0,0,0-.48,1,1,0,0,0-.93-.67H108.4a.91.91,0,0,0-.93,1.15,5.58,5.58,0,0,0-1.53.75l-.27.21Z" transform="translate(-29.89 -36.57)"/><path id="Path_117" data-name="Path 117" class="cls-8" d="M113.42,125.55a1.75,1.75,0,0,0,1,1.81l.18,0c.67,0,1.22-.82,1.22-1.83a2.26,2.26,0,0,0-.47-1.44,1.12,1.12,0,0,0-.36-.29.85.85,0,0,0-.91.07A2.07,2.07,0,0,0,113.42,125.55Z" transform="translate(-29.89 -36.57)"/><path id="Path_118" data-name="Path 118" class="cls-8" d="M102.57,125.55a2,2,0,0,0,.8,1.72.88.88,0,0,0,.42.11h.1c.62-.07,1.12-.86,1.12-1.82a2,2,0,0,0-.77-1.69.88.88,0,0,0-.45-.14,1,1,0,0,0-.39.1,1.31,1.31,0,0,0-.36.3A2.24,2.24,0,0,0,102.57,125.55Z" transform="translate(-29.89 -36.57)"/><path id="Path_119" data-name="Path 119" class="cls-8" d="M103.44,127.09a.16.16,0,0,0,.16-.15s0,0,0,0a5.93,5.93,0,1,1,11.43-.67.15.15,0,0,0,.12.19.16.16,0,0,0,.18-.12,6.24,6.24,0,1,0-12,.7A.15.15,0,0,0,103.44,127.09Z" transform="translate(-29.89 -36.57)"/><path id="Path_120" data-name="Path 120" class="cls-4" d="M111.9,122.61a.77.77,0,0,1-.12.94,1.26,1.26,0,0,1-1.17.29,3.23,3.23,0,0,0-1.41-.14c-.4.12-.68.48-1.09.57a.73.73,0,0,1-.92-.41c-.07-.19.23-.27.29-.08s.44.24.64.18.58-.39.9-.52a2,2,0,0,1,1.18,0,1.86,1.86,0,0,0,1.14,0c.27-.11.49-.47.29-.73S111.78,122.45,111.9,122.61Z" transform="translate(-29.89 -36.57)"/><path id="Path_121" data-name="Path 121" class="cls-5" d="M108.56,135.61a11.79,11.79,0,0,1-3.18-.44l-.37-.12a11.22,11.22,0,0,1-2.07-.91l-.38-.22a11.68,11.68,0,0,1-1.82-1.39l-.27-.26a11.47,11.47,0,1,1,12,2.65l-.13.05A11.39,11.39,0,0,1,108.56,135.61Zm0-22.31a10.85,10.85,0,0,0-7.67,18.54l.26.25a11.08,11.08,0,0,0,1.73,1.31l.35.21a11.09,11.09,0,0,0,2,.86l.35.11a10.93,10.93,0,0,0,6.6-.18l.12-.05a10.85,10.85,0,0,0-3.71-21Z" transform="translate(-29.89 -36.57)"/><path id="Path_122" data-name="Path 122" class="cls-8" d="M152.46,190.41H92.39a2.86,2.86,0,0,1-2.86-2.85V106a2.86,2.86,0,0,1,2.86-2.85h60.07a2.85,2.85,0,0,1,2.85,2.85v81.55A2.86,2.86,0,0,1,152.46,190.41ZM92.39,103.49A2.53,2.53,0,0,0,89.87,106v81.55a2.53,2.53,0,0,0,2.52,2.52h60.07a2.52,2.52,0,0,0,2.51-2.52V106a2.51,2.51,0,0,0-2.51-2.52Z" transform="translate(-29.89 -36.57)"/><path id="Path_123" data-name="Path 123" class="cls-3" d="M140.83,124.34h-17a1.35,1.35,0,0,1,0-2.69h17a1.35,1.35,0,0,1,0,2.69Z" transform="translate(-29.89 -36.57)"/><path id="Path_124" data-name="Path 124" class="cls-3" d="M146.38,128.88H123.83a1.35,1.35,0,0,1,0-2.69h22.55a1.35,1.35,0,0,1,0,2.69Z" transform="translate(-29.89 -36.57)"/><path id="Path_125" data-name="Path 125" class="cls-5" d="M140.8,146.28H98.47a1.35,1.35,0,0,1,0-2.69H140.8a1.35,1.35,0,0,1,0,2.69Z" transform="translate(-29.89 -36.57)"/><path id="Path_126" data-name="Path 126" class="cls-5" d="M146.35,150.82H98.47a1.35,1.35,0,0,1,0-2.69h47.88a1.35,1.35,0,0,1,.07,2.69Z" transform="translate(-29.89 -36.57)"/><path id="Path_127" data-name="Path 127" class="cls-5" d="M140.8,161.25H98.47a1.35,1.35,0,0,1,0-2.69H140.8a1.35,1.35,0,1,1,0,2.69Z" transform="translate(-29.89 -36.57)"/><path id="Path_128" data-name="Path 128" class="cls-5" d="M146.35,165.79H98.47a1.35,1.35,0,0,1,0-2.69h47.88a1.35,1.35,0,0,1,0,2.69Z" transform="translate(-29.89 -36.57)"/><path id="Path_129" data-name="Path 129" class="cls-5" d="M140.8,176.22H98.47a1.35,1.35,0,1,1,0-2.69H140.8a1.35,1.35,0,1,1,0,2.69Z" transform="translate(-29.89 -36.57)"/><path id="Path_130" data-name="Path 130" class="cls-5" d="M146.35,180.76H98.47a1.35,1.35,0,0,1,0-2.69h47.88a1.35,1.35,0,0,1,.07,2.69Z" transform="translate(-29.89 -36.57)"/><path id="Path_131" data-name="Path 131" class="cls-3" d="M151.76,171.84a13.25,13.25,0,0,0,0,26.5h0a13.25,13.25,0,0,0,0-26.5Z" transform="translate(-29.89 -36.57)"/><path id="f276b720-7c73-4755-84a7-b208d54eb1fc" class="cls-2" d="M150.5,190.59a1.61,1.61,0,0,1-1-.32h0l-3.64-2.79a1.62,1.62,0,1,1,2-2.57l2.36,1.81,5.58-7.27a1.6,1.6,0,0,1,2.26-.3h0l0,0,0,0a1.61,1.61,0,0,1,.3,2.27L151.8,190a1.63,1.63,0,0,1-1.29.63Z" transform="translate(-29.89 -36.57)"/></g></svg>