<svg id="Layer_1" data-name="Layer 1" xmlns="http://www.w3.org/2000/svg" viewBox="0 0 185.64 179.69"><defs><style>.cls-1{fill:#7b7bff;}.cls-2{fill:#2f2e41;}.cls-3{fill:#ffb6b6;}.cls-4{opacity:0.1;isolation:isolate;}.cls-5{fill:#e6e6e6;}.cls-6{fill:#fff;}.cls-7{fill:#3f3d56;}.cls-8{fill:#4f46e5;}</style></defs><title>moshavere</title><path id="Path_171" data-name="Path 171" class="cls-1" d="M137,187.5c-28.81-2.71-34.37-27-31-55.69s15.57-61.73,44.38-59,74.19,41.16,70.85,69.84S165.79,190.2,137,187.5Z" transform="translate(-35.71 -31.33)"/><path id="Path_172" data-name="Path 172" class="cls-1" d="M44.81,126.94c-18.85,22-6,43.31,16.36,61.62s54.08,33.58,72.93,11.62,24.78-81.14,2.45-99.45S63.65,105,44.81,126.94Z" transform="translate(-35.71 -31.33)"/><path id="Path_170" data-name="Path 170" class="cls-1" d="M50.26,116.58c3.22,28.76,27.63,33.88,56.25,30s61.44-16.68,58.23-45.44S122.25,27.7,93.62,31.56,47,87.82,50.26,116.58Z" transform="translate(-35.71 -31.33)"/><g id="undraw_join_re_w1lh" data-name="undraw join re w1lh"><path id="Path_132" data-name="Path 132" class="cls-2" d="M161.29,163v.06l3,31.67H142.43L139.6,175.3l-1.25,18.95L115.91,194l2.38-24.88,2-11.53h0l.3-1.74h40.07l.06.63Z" transform="translate(-35.71 -31.33)"/><path id="Path_133" data-name="Path 133" class="cls-3" d="M103.54,181.38c2.31.42,4.73-2.19,5.39-5.83a9.19,9.19,0,0,0-.19-4.36l.35-2.1,6-28.2s11-21.94,11-25.75a6.91,6.91,0,0,0-3.17-5.67l-4.29,0-13.46,32.87-2.43,24.3-.39,3.33a9.37,9.37,0,0,0-1.72,4c-.66,3.64.68,6.92,3,7.35Z" transform="translate(-35.71 -31.33)"/><path id="Path_134" data-name="Path 134" class="cls-3" d="M147.2,95.88l-4-9.23-13,2.24-.88,10.86Z" transform="translate(-35.71 -31.33)"/><path id="Path_135" data-name="Path 135" class="cls-4" d="M147.2,95.88l-4-9.23-13,2.24-.88,10.86Z" transform="translate(-35.71 -31.33)"/><path id="Path_136" data-name="Path 136" class="cls-5" d="M175.38,115.08s-9.22-17.21-11-19a3.38,3.38,0,0,0-3.11-.56l-12.85-4.42-4.35-2.45-.29,4.66-14.29,2.56A13.68,13.68,0,0,1,130,92l-5.24,6.13-10.22,5v0a4.1,4.1,0,0,0-2,1.45c-2,2.75-7.48,36.16-7.48,36.16l11.72,2.49,1.6-10,1.15,9,.87,16.83s16,13.71,23.69,8.73,17.21-4.74,17.21-4.74l.24-7.8.26-.43-.25-27.67v-7.37a16.57,16.57,0,0,0,6.86,6c8.72,3.49,7-10.72,7-10.72Z" transform="translate(-35.71 -31.33)"/><circle id="Ellipse_24" data-name="Ellipse 24" class="cls-3" cx="99.66" cy="47.26" r="11.93"/><path id="Path_137" data-name="Path 137" class="cls-2" d="M143.93,82s1-3.63,3.38-3.37a2.05,2.05,0,0,0,2.33-2.86,55.46,55.46,0,0,1-1.56-6.22s.52-3.63-2.59-4.15-4.15-1-4.67-2.07-8.3-2.08-10.89-.52-4.67,4.54-6.48,5.38-3.37,2.4-2.34,5,2.55,7.67,2.55,7.67,2.64-.93,3.16.63-1.56-.52,1-4.66,2.59-8.3,6.74-6.75,8.82,1,8.3,4.15,1,7.78,1,7.78Z" transform="translate(-35.71 -31.33)"/><g id="Group_3" data-name="Group 3"><path id="Path_138" data-name="Path 138" class="cls-6" d="M143.2,176.53H52.61A4.67,4.67,0,0,1,48,171.88V123.76a4.65,4.65,0,0,1,4.65-4.65h90.6a4.65,4.65,0,0,1,4.64,4.65v48.12a4.65,4.65,0,0,1-4.64,4.65Z" transform="translate(-35.71 -31.33)"/><path id="Path_139" data-name="Path 139" class="cls-7" d="M143.2,176.53H52.61A4.67,4.67,0,0,1,48,171.88V123.76a4.65,4.65,0,0,1,4.65-4.65h90.6a4.65,4.65,0,0,1,4.64,4.65v48.12a4.65,4.65,0,0,1-4.64,4.65ZM52.61,119.88a3.88,3.88,0,0,0-3.87,3.87v48.13a3.87,3.87,0,0,0,3.87,3.87h90.6a3.87,3.87,0,0,0,3.87-3.87V123.76a3.87,3.87,0,0,0-3.87-3.87H52.61Z" transform="translate(-35.71 -31.33)"/><circle id="Ellipse_25" data-name="Ellipse 25" class="cls-7" cx="100.5" cy="92.44" r="1.16"/><circle id="Ellipse_26" data-name="Ellipse 26" class="cls-7" cx="103.6" cy="92.44" r="1.16"/><circle id="Ellipse_27" data-name="Ellipse 27" class="cls-7" cx="106.7" cy="92.44" r="1.16"/><path id="Path_140" data-name="Path 140" class="cls-5" d="M54.56,142.58a.58.58,0,1,0,0,1.16h87.09a.58.58,0,0,0,0-1.16Z" transform="translate(-35.71 -31.33)"/><path id="Path_141" data-name="Path 141" class="cls-8" d="M130.78,142.39v1.55H54.56a.79.79,0,0,1-.78-.78.77.77,0,0,1,.78-.77Z" transform="translate(-35.71 -31.33)"/><path id="Path_142" data-name="Path 142" class="cls-5" d="M140.67,139.48h-7.75a1.57,1.57,0,0,1-1.48-1.63,1.55,1.55,0,0,1,1.48-1.47h7.75a1.55,1.55,0,0,1,.16,3.1Z" transform="translate(-35.71 -31.33)"/><path id="Path_143" data-name="Path 143" class="cls-5" d="M89.85,131.33H55.14a1.55,1.55,0,0,1,0-3.1H89.85a1.55,1.55,0,0,1,0,3.1Z" transform="translate(-35.71 -31.33)"/><path id="Path_144" data-name="Path 144" class="cls-5" d="M54.56,160a.58.58,0,0,0,0,1.16h87.09a.58.58,0,1,0,0-1.16Z" transform="translate(-35.71 -31.33)"/><path id="Path_145" data-name="Path 145" class="cls-8" d="M100.91,159.84v1.56H54.56a.78.78,0,1,1,0-1.56Z" transform="translate(-35.71 -31.33)"/><path id="Path_146" data-name="Path 146" class="cls-5" d="M140.67,156.93h-7.75a1.55,1.55,0,0,1,0-3.1h7.75a1.56,1.56,0,0,1,1.63,1.48,1.54,1.54,0,0,1-1.47,1.62Z" transform="translate(-35.71 -31.33)"/></g><g id="Group_4" data-name="Group 4"><ellipse id="Ellipse_28" data-name="Ellipse 28" class="cls-8" cx="118.54" cy="48.21" rx="12.15" ry="11.89"/><path id="Path_147" data-name="Path 147" class="cls-6" d="M158.38,73.54l-4.85,8.84-3.09-5.47a.56.56,0,0,0-1,.57c1.2,2.11,2.38,4.23,3.58,6.34a.58.58,0,0,0,.78.19.69.69,0,0,0,.19-.19l5.33-9.71C159.7,73.47,158.73,72.91,158.38,73.54Z" transform="translate(-35.71 -31.33)"/></g><path id="Path_148" data-name="Path 148" class="cls-3" d="M171,110.89l-12.1-5.79s-.49-3.87-2.76-5.26c-.38-.92-.83-1.93-1.23-2.73-1-2,.5-5.72-.75-5.72s-3.09,3.93-3,5c.07.81.74,2.22.88,3.46a10.55,10.55,0,0,0-3.55,2.34,2.63,2.63,0,0,0-.69,2.62c.79,2.7,2.77,8.29,5.6,8.29,3.74,0,4.74-.75,4.74-.75s7.73,9.73,13.47,10.48-.62-11.92-.62-11.92Z" transform="translate(-35.71 -31.33)"/></g></svg>