<svg id="Layer_1" data-name="Layer 1" xmlns="http://www.w3.org/2000/svg" viewBox="0 0 181.25 162.81"><defs><style>.cls-1{fill:#7b7bff;}.cls-2{fill:#e6e6e6;}.cls-3{fill:#fff;}.cls-4{fill:#ccc;}.cls-5{fill:#4f46e5;}.cls-6{fill:#2f2e41;}.cls-7{fill:#ffb8b8;}</style></defs><title>resumeKari</title><path id="Path_161" data-name="Path 161" class="cls-1" d="M44.13,79c13.3-25.7,37.92-21.74,63.26-7.9s51.4,37.55,38.1,63.25S79.54,187.75,54.2,173.91,30.83,104.72,44.13,79Z" transform="translate(-34.52 -41.43)"/><path id="Path_162" data-name="Path 162" class="cls-1" d="M172,105.67c-13.3-25.7-37.92-21.75-63.26-7.91S57.38,135.32,70.68,161s65.95,53.37,91.29,39.53S185.33,131.36,172,105.67Z" transform="translate(-34.52 -41.43)"/><path id="Path_163" data-name="Path 163" class="cls-1" d="M152.42,43.09C124.56,35.29,110.66,56,103.5,84s-7.58,63.2,20.28,71,84-11.83,91.17-39.81S180.29,50.89,152.42,43.09Z" transform="translate(-34.52 -41.43)"/><g id="undraw_at_work_re_qotl" data-name="undraw at work re qotl"><path id="Path_53" data-name="Path 53" class="cls-2" d="M179.41,154.58l-66.7,22.55a3.31,3.31,0,0,1-4.19-2.08L77.62,83.64a3.3,3.3,0,0,1,2.07-4.19l66.7-22.55A3.31,3.31,0,0,1,150.58,59l30.9,91.41A3.31,3.31,0,0,1,179.41,154.58Z" transform="translate(-34.52 -41.43)"/><path id="Path_54" data-name="Path 54" class="cls-3" d="M177.7,152.9,113,174.75a2.23,2.23,0,0,1-2.83-1.4L80,84a2.23,2.23,0,0,1,1.4-2.83l64.67-21.86a2.22,2.22,0,0,1,2.83,1.4l30.22,89.38A2.25,2.25,0,0,1,177.7,152.9Z" transform="translate(-34.52 -41.43)"/><path id="Path_55" data-name="Path 55" class="cls-4" d="M161.45,180.81H91a3.31,3.31,0,0,1-3.31-3.3V81A3.31,3.31,0,0,1,91,77.7h70.41a3.31,3.31,0,0,1,3.3,3.31v96.5A3.3,3.3,0,0,1,161.45,180.81Z" transform="translate(-34.52 -41.43)"/><path id="Path_56" data-name="Path 56" class="cls-3" d="M160.37,178.67H92.11a2.23,2.23,0,0,1-2.23-2.24V82.08a2.24,2.24,0,0,1,2.23-2.24h68.26a2.24,2.24,0,0,1,2.24,2.24v94.35A2.24,2.24,0,0,1,160.37,178.67Z" transform="translate(-34.52 -41.43)"/><path id="Path_57" data-name="Path 57" class="cls-4" d="M145.83,106.61H100.75a1.43,1.43,0,1,1,0-2.86h45.08a1.43,1.43,0,1,1,0,2.86Z" transform="translate(-34.52 -41.43)"/><path id="Path_58" data-name="Path 58" class="cls-4" d="M151.74,111.44h-51a1.43,1.43,0,1,1,0-2.86h51a1.43,1.43,0,0,1,0,2.86Z" transform="translate(-34.52 -41.43)"/><path id="Path_59" data-name="Path 59" class="cls-5" d="M145.83,128.27H100.75a1.43,1.43,0,1,1,0-2.86h45.08a1.43,1.43,0,0,1,0,2.86Z" transform="translate(-34.52 -41.43)"/><path id="Path_60" data-name="Path 60" class="cls-4" d="M151.74,133.1h-51a1.43,1.43,0,1,1,0-2.86h51a1.43,1.43,0,1,1,0,2.86Z" transform="translate(-34.52 -41.43)"/><path id="Path_61" data-name="Path 61" class="cls-4" d="M145.83,149.93H100.75a1.43,1.43,0,1,1,0-2.86h45.08a1.43,1.43,0,0,1,0,2.86Z" transform="translate(-34.52 -41.43)"/><path id="Path_62" data-name="Path 62" class="cls-4" d="M151.74,154.77h-51a1.44,1.44,0,1,1,0-2.87h51a1.44,1.44,0,0,1,0,2.87Z" transform="translate(-34.52 -41.43)"/><path id="Path_63" data-name="Path 63" class="cls-6" d="M73.23,123H62.86a.8.8,0,0,1-.8-.8v-4.47a6,6,0,0,1,12,0v4.47a.81.81,0,0,1-.8.8Z" transform="translate(-34.52 -41.43)"/><path id="Path_64" data-name="Path 64" class="cls-7" d="M89.23,146.27a1.79,1.79,0,0,1-1.7-1.89,1.65,1.65,0,0,1,0-.31l-5.4-3.4,3-1.37,4.67,3.44a1.81,1.81,0,0,1-.63,3.53Z" transform="translate(-34.52 -41.43)"/><path id="Path_65" data-name="Path 65" class="cls-6" d="M85.5,143.5a1,1,0,0,1-.5-.2L70.14,131.78l-1.92-3.41a1.89,1.89,0,0,1,.17-2.11h0a1.89,1.89,0,0,1,2.67-.3l.1.09,16.56,13.43a1,1,0,0,1,.26,1.35v0l-1.59,2.24a.94.94,0,0,1-.65.4Z" transform="translate(-34.52 -41.43)"/><path id="Path_66" data-name="Path 66" class="cls-7" d="M50.48,176.47l2,.82,4.14-7.44-3-1.21Z" transform="translate(-34.52 -41.43)"/><path id="Path_67" data-name="Path 67" class="cls-6" d="M50.23,175.6l4,1.62h0a2.75,2.75,0,0,1,1.52,3.58l0,.08-6.54-2.65Z" transform="translate(-34.52 -41.43)"/><path id="Path_68" data-name="Path 68" class="cls-7" d="M74.14,178.76h2.2l1-8.45H74.14Z" transform="translate(-34.52 -41.43)"/><path id="Path_69" data-name="Path 69" class="cls-6" d="M73.59,178H77.9a2.75,2.75,0,0,1,2.75,2.75h0v.09H73.59Z" transform="translate(-34.52 -41.43)"/><path id="Path_70" data-name="Path 70" class="cls-6" d="M76,174a5.18,5.18,0,0,1-2.19-.59.9.9,0,0,1-.48-.63l-4.62-23.28-12,22.42a.89.89,0,0,1-.51.42,3.77,3.77,0,0,1-4.47-1.11.88.88,0,0,1-.1-.91l5.55-12.06,3.36-11.45,3.39-8.38H64l11.34,1.19,1.38,7.59,1.39,25.25a.92.92,0,0,1-.16.56A2.33,2.33,0,0,1,76,174Z" transform="translate(-34.52 -41.43)"/><circle id="Ellipse_19" data-name="Ellipse 19" class="cls-7" cx="35.01" cy="77.07" r="4.39"/><path id="Path_71" data-name="Path 71" class="cls-5" d="M71.05,143.1c-1.91,0-4.28-1.12-7-3.34l0,0,2-15.49H66a9.86,9.86,0,0,1,7,2.19h0l1.53,2v0l.22,12.12h0a3.84,3.84,0,0,1-2.46,2.35,4.33,4.33,0,0,1-1.24.18Z" transform="translate(-34.52 -41.43)"/><path id="Path_72" data-name="Path 72" class="cls-6" d="M73.88,150.34a1,1,0,0,1-.94-.72l-2.7-10.2-1.71,9.29a1,1,0,0,1-1.09.79l-7.43-1a1,1,0,0,1-.83-1.1.85.85,0,0,1,0-.17L63,136.1l-.84-6.49a4.88,4.88,0,0,1,4.2-5.45,3,3,0,0,1,.42,0h.08l3.57,8.62.57-2.27.89-4.9.13.07a7.91,7.91,0,0,1,4,7.21l-.23,5.19,2,10.59a1,1,0,0,1-.77,1.13l-2.9.55-.18,0Z" transform="translate(-34.52 -41.43)"/><path id="Path_73" data-name="Path 73" class="cls-6" d="M75.45,118.13H69.11l-.06-.91-.33.91h-1l-.13-1.8-.65,1.8H65.08V118a4.75,4.75,0,0,1,4.74-4.73h.89A4.74,4.74,0,0,1,75.45,118Z" transform="translate(-34.52 -41.43)"/><path id="Path_74" data-name="Path 74" class="cls-4" d="M179.11,181.08H36.86a.18.18,0,0,1-.16-.19.19.19,0,0,1,.16-.17H179.11a.17.17,0,0,1,.19.17.18.18,0,0,1-.16.19Z" transform="translate(-34.52 -41.43)"/><path id="Path_75" data-name="Path 75" class="cls-5" d="M71.2,145.38a2,2,0,0,0,2,2l.28,0a3.37,3.37,0,0,0,3.09,2h0A3.37,3.37,0,0,0,79.94,146h0V143.1c0-.75-.61-1-1.36-1h-4c-.76,0-1.36.25-1.36,1v.28a2,2,0,0,0-2,2Zm.55,0a1.45,1.45,0,0,1,1.45-1.46V146a3.75,3.75,0,0,0,.1.82h-.1a1.45,1.45,0,0,1-1.45-1.45Z" transform="translate(-34.52 -41.43)"/><path id="Path_76" data-name="Path 76" class="cls-7" d="M72.81,144.9a1.8,1.8,0,0,0-2.43-.76l-.26.17-5.35-3.48,0,3.32,5.08,2.8a1.81,1.81,0,0,0,2.94-2Z" transform="translate(-34.52 -41.43)"/><path id="Path_77" data-name="Path 77" class="cls-6" d="M67,146.92a.81.81,0,0,1-.57-.23l-6.82-6.82a1.82,1.82,0,0,1-.48-1.69c.58-2.55,2-8.64,2.6-10.14a5.3,5.3,0,0,1,2.3-2.68h0l2.16.4.19,6.65L63.82,138l5.54,5.23a.8.8,0,0,1,.09,1.08l-1.79,2.31a.82.82,0,0,1-.59.31Z" transform="translate(-34.52 -41.43)"/><ellipse id="Ellipse_20" data-name="Ellipse 20" class="cls-6" cx="42.05" cy="101.22" rx="2.5" ry="0.36"/></g></svg>