<svg id="Layer_1" data-name="Layer 1" xmlns="http://www.w3.org/2000/svg" viewBox="0 0 130 130"><defs><style>.cls-1{fill:#f0f2f5;}.cls-2{fill:#0284c7;}</style></defs><title>backend - dark</title><circle id="Ellipse_33" data-name="Ellipse 33" class="cls-1" cx="65" cy="65" r="65"/><path id="Path_174" data-name="Path 174" class="cls-2" d="M144.58,98.22H106a6.48,6.48,0,0,0,0,13h38.54a6.48,6.48,0,0,0,0-13Zm-.85,8.7A2.22,2.22,0,1,1,146,104.7h0a2.22,2.22,0,0,1-2.22,2.21Zm.85,5.71H106a6.49,6.49,0,0,0,0,13h38.54a6.49,6.49,0,0,0,0-13Zm-.85,8.7a2.22,2.22,0,1,1,2.22-2.22h0a2.23,2.23,0,0,1-2.22,2.22Zm.85,5.72H106a6.48,6.48,0,1,0,0,13h38.54a6.48,6.48,0,0,0,0-13Zm-.85,8.7a2.22,2.22,0,1,1,2.22-2.22,2.23,2.23,0,0,1-2.22,2.22Z" transform="translate(-60.24 -59.92)"/><path id="Path_175" data-name="Path 175" class="cls-2" d="M114.34,146.67h21.95v5H114.34Z" transform="translate(-60.24 -59.92)"/><path id="Path_176" data-name="Path 176" class="cls-2" d="M123.82,141.56h3V149h-3Zm-28.44,6.66H113v1.63H95.38Zm42.26,0h17.6v1.63h-17.6Z" transform="translate(-60.24 -59.92)"/></svg>