<svg id="Layer_1" data-name="Layer 1" xmlns="http://www.w3.org/2000/svg" viewBox="0 0 130 130"><defs><style>.cls-1{fill:#f0f2f5;}.cls-2{fill:#0284c7;}</style></defs><title>middle - dark</title><circle id="Ellipse_35" data-name="Ellipse 35" class="cls-1" cx="65" cy="65" r="65"/><path id="Path_184" data-name="Path 184" class="cls-2" d="M148.1,145.3a3,3,0,0,1-.43,0,2.82,2.82,0,0,1-2.71,2.16h-53a2.81,2.81,0,0,1-2.79-2.79V109.15h58.63v1.77l.36,0h3v-5.67A6.15,6.15,0,0,0,145,99.07h-53a6.17,6.17,0,0,0-6.15,6.14v39.42a6.16,6.16,0,0,0,6.15,6.14h53A6.13,6.13,0,0,0,151,145.3ZM144.31,103a1.4,1.4,0,1,1-1.4,1.4h0a1.4,1.4,0,0,1,1.4-1.4Zm-11,.08h6.86a1.32,1.32,0,1,1,0,2.63h-6.87a1.32,1.32,0,0,1,0-2.63Z" transform="translate(-60.24 -59.92)"/><path id="Path_185" data-name="Path 185" class="cls-2" d="M151.64,121.26a7.09,7.09,0,1,0,3.1,1.81A7.08,7.08,0,0,0,151.64,121.26Zm0,8.66a2.66,2.66,0,0,1-1.91.82,2.52,2.52,0,0,1-1.21-.3,2.63,2.63,0,0,1-1.16-3.54,2.58,2.58,0,0,1,1.16-1.15,2.52,2.52,0,0,1,1.21-.3,2.64,2.64,0,0,1,1.91,4.47Z" transform="translate(-60.24 -59.92)"/><path id="Path_186" data-name="Path 186" class="cls-2" d="M164.56,126l-3.21-.38a11.72,11.72,0,0,0-1.67-4l2-2.54a.48.48,0,0,0,0-.62l-2.27-2.28a.47.47,0,0,0-.62,0l-2.54,2a11.82,11.82,0,0,0-4-1.68l-.38-3.21a.45.45,0,0,0-.16-.29.42.42,0,0,0-.3-.12h-3.22a.5.5,0,0,0-.47.41l-.37,3.21a11.82,11.82,0,0,0-4,1.68l-2.54-2a.49.49,0,0,0-.63,0l-2.27,2.27a.49.49,0,0,0,0,.63l2,2.54a11.75,11.75,0,0,0-1.67,4l-3.21.39a.46.46,0,0,0-.41.46v3.21a.47.47,0,0,0,.41.47l3.21.38a11.8,11.8,0,0,0,1.67,4l-1.3,1.66-.7.88a.47.47,0,0,0,0,.62l1.62,1.62,0,0,.62.61a.49.49,0,0,0,.63,0l.83-.65,0,0,1.68-1.31a11.77,11.77,0,0,0,2.72,1.31l.1,0a10.11,10.11,0,0,0,1.2.32l.38,3.21a.49.49,0,0,0,.47.42h3.21a.49.49,0,0,0,.47-.42l.38-3.21a10.65,10.65,0,0,0,1.2-.32A11.27,11.27,0,0,0,156.2,138l1.71,1.35.83.65a.49.49,0,0,0,.63,0l.62-.62,1.65-1.66a.48.48,0,0,0,0-.62l-2-2.54a11.72,11.72,0,0,0,1.67-4l3.21-.38a.49.49,0,0,0,.42-.46v-3.22A.49.49,0,0,0,164.56,126ZM150.8,136.57a8.27,8.27,0,0,1-4.09-.48,8.55,8.55,0,0,1,1.8-16.46,9.87,9.87,0,0,1,1.21-.1,8.55,8.55,0,0,1,1.08,17Z" transform="translate(-60.24 -59.92)"/><path id="Path_187" data-name="Path 187" class="cls-2" d="M103.83,122.22l-4,12.18h3.6l.61-2.28H108l.6,2.28h3.58l-4-12.18Zm.94,7.21c.5-1.9.83-3.17,1-3.82s.25-1.11.3-1.39c.06.31.17.81.35,1.51s.29,1.15.44,1.72l.52,2Zm13.8-7.16h-4.2V134.4h3.28v-4h.92a4.83,4.83,0,0,0,3.4-1.1,4.1,4.1,0,0,0,1.2-3.14,3.62,3.62,0,0,0-1.15-2.86,5.21,5.21,0,0,0-3.45-1Zm.85,5a1.58,1.58,0,0,1-1.17.41h-.6v-2.78h.84c.91,0,1.36.41,1.36,1.22a1.46,1.46,0,0,1-.44,1.15Zm6.53-5h3.29V134.4H126Z" transform="translate(-60.24 -59.92)"/></svg>