<svg id="Layer_1" data-name="Layer 1" xmlns="http://www.w3.org/2000/svg" viewBox="0 0 130 130"><defs><style>.cls-1{fill:#f0f2f5;}.cls-2{fill:#4f46e5;}.cls-3{fill:#7b7bff;}</style></defs><title>amniat</title><circle id="Ellipse_36" data-name="Ellipse 36" class="cls-1" cx="65" cy="65" r="65"/><path id="Path_188" data-name="Path 188" class="cls-2" d="M123.6,151.05A39.34,39.34,0,0,1,111,137.2a35.69,35.69,0,0,1,9.57-2.52c0-.71,0-1.38,0-2A43.13,43.13,0,0,0,110,135.32a36.54,36.54,0,0,1-3.2-12.92l0-.78,14.2,0,3.92,0v5.32l2.22-.77,0-4.55,13.18,0,2.33-.81,2.34.81.31,0v.09l2.18.75c0-.29,0-.58,0-.86l12.91,0a1.68,1.68,0,0,0,.55,0,29.18,29.18,0,0,1-.72,5.27l2,.7a32.75,32.75,0,0,0-4.53-25.11c-6.2-9.55-17.8-16-29.5-16.54-15.52-1.08-30.43,7-37,19.9-4.72,8.7-4.54,21,.23,29.54,6,11.77,20.06,19.8,34.25,19.41a31.3,31.3,0,0,1-2.21-3.69s0,0,0,0Zm37.46-31.45-13.46,0A39,39,0,0,0,143.72,104a35.92,35.92,0,0,0,8.17-5.47A30.48,30.48,0,0,1,161.06,119.6ZM150.36,97a32.24,32.24,0,0,1-7.65,5.21A41.92,41.92,0,0,0,129,88a37.09,37.09,0,0,1,21.32,9Zm-23.12-7.67a39.64,39.64,0,0,1,13.52,13.75,35,35,0,0,1-13.55,3.12Zm0,18.9a39.51,39.51,0,0,0,14.49-3.3,33.93,33.93,0,0,1,3.69,14.68l-18.11,0,0,0,0-11.22ZM125,119.63H106.81a35,35,0,0,1,3.4-14.31,42.4,42.4,0,0,0,14.8,3Zm0-13.36a38.65,38.65,0,0,1-13.81-2.78A40.66,40.66,0,0,1,125.06,89Zm-2.1-18.34a43.22,43.22,0,0,0-13.68,14.65,30.6,30.6,0,0,1-8.4-5.53,36.92,36.92,0,0,1,22.08-9.12ZM90.14,117.14c.16-.11,0-.31.09-.45a31.05,31.05,0,0,1,9-18.19,37.66,37.66,0,0,0,9,5.91,38.21,38.21,0,0,0-3.63,15.22l-14.51,0,0-.05.1-2.46Zm9,25A30.49,30.49,0,0,1,90,121.63l13.38,0,1.24,0a36.08,36.08,0,0,0,3.43,14.58,42.15,42.15,0,0,0-9,5.87Zm1.57,1.5a33.38,33.38,0,0,1,8.23-5.53,42.93,42.93,0,0,0,13.39,14.65,36.79,36.79,0,0,1-21.61-9.11Z" transform="translate(-60.24 -59.92)"/><path id="Path_189" data-name="Path 189" class="cls-2" d="M158.57,131.15h0l-17.1-6.53-17.12,6.53c0,4.25-.18,13.38,2.53,19.26a26.05,26.05,0,0,0,14.58,13.87A26.09,26.09,0,0,0,156,150.41C158.75,144.53,158.59,135.4,158.57,131.15ZM155,133.79c-.17,4.78-.33,11.06-2.19,15.1-2.2,4.75-6,9.38-11.34,11.63-5.32-2.25-9.14-6.88-11.33-11.63-1.87-4-2-10.32-2.2-15.1l13.57-5.23,13.57,5.23Z" transform="translate(-60.24 -59.92)"/><path id="Path_190" data-name="Path 190" class="cls-3" d="M132.39,147.87q.23.49.48,1l18-13.67-9.38-3.62-10.9,4.22C130.73,139.21,130.83,144.5,132.39,147.87Zm9,9.5a19,19,0,0,0,9-9.5c1.22-2.66,1.54-6.5,1.7-9.71l-17.6,13.4a17.39,17.39,0,0,0,6.86,5.81Z" transform="translate(-60.24 -59.92)"/></svg>