<svg id="Layer_1" data-name="Layer 1" xmlns="http://www.w3.org/2000/svg" xmlns:xlink="http://www.w3.org/1999/xlink" viewBox="0 0 130 130"><defs><style>.cls-1{fill:none;}.cls-2{clip-path:url(#clip-path);}.cls-3{fill:#f0f2f5;}.cls-4{fill:#7b7bff;}.cls-5{fill:#4f46e5;}</style><clipPath id="clip-path" transform="translate(-60.24 -59.92)"><circle class="cls-1" cx="125.24" cy="124.92" r="65"/></clipPath></defs><title>design</title><g class="cls-2"><g id="Mask_Group_1" data-name="Mask Group 1"><g id="design"><path id="Path_404" data-name="Path 404" class="cls-3" d="M125.24,59.92a65,65,0,1,0,65,65A65,65,0,0,0,125.24,59.92Z" transform="translate(-60.24 -59.92)"/><path id="Path_405" data-name="Path 405" class="cls-4" d="M111.83,142.79V115.05h28.69v27.74Zm28.18-.5Zm-27.17-.5h26.67V116.06H112.84v25.72Z" transform="translate(-60.24 -59.92)"/><path id="Path_406" data-name="Path 406" class="cls-4" d="M110.51,113.79h3.71v3.7h-3.71Zm27.63,0h3.7v3.7h-3.7Zm-13.82,0H128v3.7h-3.71Zm-13.81,26.56h3.71v3.7h-3.71Zm27.63,0h3.7v3.7h-3.7Zm-13.82,0H128v3.7h-3.71Zm-13.81-13.28h3.71v3.7h-3.71Zm27.63,0h3.7v3.7h-3.7Z" transform="translate(-60.24 -59.92)"/><path id="Path_407" data-name="Path 407" class="cls-5" d="M136.88,134.91l-7.79-3.07,3.7,7.24.94-3.1Zm-1.51,4.84v-2.07h2.07v2.07Zm1.83-.24Zm-1.34-.24H137v-1.1h-1.1Z" transform="translate(-60.24 -59.92)"/><path id="Path_408" data-name="Path 408" class="cls-5" d="M154.56,96.34H95.92a6.81,6.81,0,0,0-6.79,6.79v43.58a6.8,6.8,0,0,0,6.79,6.79h58.64a6.79,6.79,0,0,0,6.79-6.79V103.13A6.8,6.8,0,0,0,154.56,96.34Zm-.72,4.35a1.55,1.55,0,1,1-1.54,1.55h0a1.54,1.54,0,0,1,1.54-1.55Zm-12.12.1h7.58a1.45,1.45,0,0,1,0,2.9h-7.58a1.45,1.45,0,1,1-.11-2.9A.2.2,0,0,1,141.72,100.79Zm15.93,45.92a3.12,3.12,0,0,1-3.09,3.09H95.92a3.12,3.12,0,0,1-3.09-3.09V107.48h64.82Z" transform="translate(-60.24 -59.92)"/></g></g></g><path id="Path_175" data-name="Path 175" class="cls-4" d="M114.34,146.67h21.95v5H114.34Z" transform="translate(-60.24 -59.92)"/><path id="Path_176" data-name="Path 176" class="cls-4" d="M123.82,141.56h3V149h-3Zm-28.44,6.66H113v1.63H95.38Zm42.26,0h17.6v1.63h-17.6Z" transform="translate(-60.24 -59.92)"/></svg>