<svg id="Layer_1" data-name="Layer 1" xmlns="http://www.w3.org/2000/svg" viewBox="0 0 130 130"><defs><style>.cls-1{fill:#f0f2f5;}.cls-2{fill:#4f46e5;}.cls-3{fill:#7b7bff;}</style></defs><title>frontend</title><circle id="Ellipse_34" data-name="Ellipse 34" class="cls-1" cx="65" cy="65" r="65"/><path id="Path_182" data-name="Path 182" class="cls-2" d="M130.77,148.89l.87,1.87s0,.55-.36.55h-21c-.36,0-.45-.55-.45-.55l.87-1.87Zm-.05-4h-20v3.51h20Zm-39.87-9V103.07H149v3.74h3.82v-6.45A1.84,1.84,0,0,0,151,98.53H89a1.84,1.84,0,0,0-1.83,1.83V142A2,2,0,0,0,89,144.07h49v-8.16H90.85Z" transform="translate(-60.24 -59.92)"/><path id="Path_183" data-name="Path 183" class="cls-3" d="M159.5,109H144.61a4.42,4.42,0,0,0-4.4,4.4v33.51a4.41,4.41,0,0,0,4.4,4.4H159.5a4.4,4.4,0,0,0,4.4-4.4V113.4A4.41,4.41,0,0,0,159.5,109Zm-10.15,1.29c0-.15.24-.27.54-.27h4.33c.3,0,.54.12.54.27v.14c0,.15-.24.27-.54.27h-4.33c-.3,0-.54-.12-.54-.27Zm3.21,1.59a.51.51,0,1,1-1,0,.51.51,0,0,1,.51-.51.52.52,0,0,1,.51.51Zm2.2,37.2a.55.55,0,0,1-.54.55h-4.33a.55.55,0,0,1-.54-.55v-.27a.54.54,0,0,1,.54-.53h4.33a.54.54,0,0,1,.54.53Zm7.32-2.16H142.35V113.41h19.73Z" transform="translate(-60.24 -59.92)"/></svg>